<svg width="914" height="82" viewBox="0 0 914 82" fill="none" xmlns="http://www.w3.org/2000/svg">
<g clip-path="url(#clip0_13_3955)">
<mask id="path-1-inside-1_13_3955" fill="white">
<path fill-rule="evenodd" clip-rule="evenodd" d="M324.429 44L342.71 4.63074C344.021 1.80664 346.852 -1.5433e-07 349.966 0L564.034 1.06103e-05C567.148 1.07646e-05 569.979 1.80665 571.29 4.63075L589.571 44H901.669C911.026 44 916.783 54.2337 911.924 62.2306L903.419 76.2306C901.242 79.8129 897.355 82 893.163 82H20.8369C16.6453 82 12.7575 79.8129 10.5812 76.2306L2.07574 62.2307C-2.78269 54.2337 2.97427 44 12.3314 44H324.429Z"/>
</mask>
<path fill-rule="evenodd" clip-rule="evenodd" d="M324.429 44L342.71 4.63074C344.021 1.80664 346.852 -1.5433e-07 349.966 0L564.034 1.06103e-05C567.148 1.07646e-05 569.979 1.80665 571.29 4.63075L589.571 44H901.669C911.026 44 916.783 54.2337 911.924 62.2306L903.419 76.2306C901.242 79.8129 897.355 82 893.163 82H20.8369C16.6453 82 12.7575 79.8129 10.5812 76.2306L2.07574 62.2307C-2.78269 54.2337 2.97427 44 12.3314 44H324.429Z" fill="white"/>
<path d="M324.429 44V46H325.705L326.243 44.8423L324.429 44ZM342.71 4.63074L340.896 3.78842V3.78842L342.71 4.63074ZM349.966 0V-2V0ZM564.034 1.06103e-05V2.00001V1.06103e-05ZM571.29 4.63075L573.104 3.78843V3.78841L571.29 4.63075ZM589.571 44L587.757 44.8423L588.295 46H589.571V44ZM911.924 62.2306L913.634 63.2691V63.2691L911.924 62.2306ZM903.419 76.2306L901.709 75.1922L903.419 76.2306ZM10.5812 76.2306L8.87191 77.2691H8.87191L10.5812 76.2306ZM2.07574 62.2307L0.366463 63.2691L2.07574 62.2307ZM326.243 44.8423L344.524 5.47305L340.896 3.78842L322.615 43.1577L326.243 44.8423ZM344.524 5.47306C345.507 3.35498 347.63 2 349.966 2V-2C346.074 -2 342.535 0.258306 340.896 3.78842L344.524 5.47306ZM349.966 2L564.034 2.00001V-1.99999L349.966 -2V2ZM564.034 2.00001C566.37 2.00001 568.493 3.35499 569.476 5.47308L573.104 3.78841C571.465 0.258318 567.927 -1.99999 564.034 -1.99999V2.00001ZM569.476 5.47306L587.757 44.8423L591.385 43.1577L573.104 3.78843L569.476 5.47306ZM589.571 46H901.669V42H589.571V46ZM901.669 46C909.466 46 914.264 54.528 910.215 61.1922L913.634 63.2691C919.302 53.9393 912.585 42 901.669 42V46ZM910.215 61.1922L901.709 75.1922L905.128 77.2691L913.634 63.2691L910.215 61.1922ZM901.709 75.1922C899.896 78.1774 896.656 80 893.163 80V84C898.053 84 902.589 81.4484 905.128 77.2691L901.709 75.1922ZM893.163 80H20.8369V84H893.163V80ZM20.8369 80C17.3439 80 14.1041 78.1774 12.2905 75.1922L8.87191 77.2691C11.411 81.4484 15.9467 84 20.8369 84V80ZM12.2905 75.1922L3.78502 61.1922L0.366463 63.2691L8.87191 77.2691L12.2905 75.1922ZM3.78502 61.1922C-0.263671 54.528 4.5338 46 12.3314 46V42C1.41474 42 -5.3017 53.9393 0.366463 63.2691L3.78502 61.1922ZM12.3314 46H324.429V42H12.3314V46Z" fill="black" mask="url(#path-1-inside-1_13_3955)"/>
<path d="M379.436 15.51V29.58H377.105V17.925L373.913 19.8885L372.905 18.24L377.357 15.51H379.436ZM382.334 28.152V30H373.567V28.152H382.334Z" fill="black"/>
<path d="M433.274 16.58V18.173H430.592V27.398H433.274V29H425.804V27.398H428.486V18.173H425.804V16.58H433.274ZM436.534 29V19.496H438.271L438.424 20.729C438.82 20.243 439.288 19.874 439.828 19.622C440.368 19.37 440.923 19.244 441.493 19.244C442.381 19.244 443.044 19.493 443.482 19.991C443.926 20.483 444.148 21.176 444.148 22.07V29H442.132V23.069C442.132 22.517 442.099 22.073 442.033 21.737C441.967 21.401 441.835 21.158 441.637 21.008C441.445 20.858 441.157 20.783 440.773 20.783C440.467 20.783 440.176 20.849 439.9 20.981C439.624 21.113 439.372 21.287 439.144 21.503C438.916 21.713 438.718 21.938 438.55 22.178V29H436.534ZM453.105 15.455C453.687 15.455 454.206 15.506 454.662 15.608C455.124 15.704 455.55 15.836 455.94 16.004L455.346 17.399C455.028 17.267 454.695 17.171 454.347 17.111C454.005 17.051 453.657 17.021 453.303 17.021C452.679 17.021 452.217 17.141 451.917 17.381C451.617 17.615 451.467 17.987 451.467 18.497V20.18H454.644L454.428 21.665H451.467V29H449.46V21.665H447.3V20.18H449.46V18.479C449.46 17.879 449.61 17.354 449.91 16.904C450.216 16.448 450.642 16.094 451.188 15.842C451.734 15.584 452.373 15.455 453.105 15.455ZM461.927 19.244C462.857 19.244 463.64 19.451 464.276 19.865C464.912 20.279 465.392 20.858 465.716 21.602C466.046 22.346 466.211 23.222 466.211 24.23C466.211 25.232 466.043 26.111 465.707 26.867C465.377 27.617 464.891 28.202 464.249 28.622C463.613 29.036 462.836 29.243 461.918 29.243C461 29.243 460.22 29.042 459.578 28.64C458.942 28.232 458.456 27.653 458.12 26.903C457.79 26.153 457.625 25.268 457.625 24.248C457.625 23.258 457.79 22.388 458.12 21.638C458.456 20.888 458.945 20.303 459.587 19.883C460.229 19.457 461.009 19.244 461.927 19.244ZM461.927 20.81C461.201 20.81 460.655 21.089 460.289 21.647C459.923 22.199 459.74 23.066 459.74 24.248C459.74 25.424 459.92 26.291 460.28 26.849C460.646 27.407 461.192 27.686 461.918 27.686C462.644 27.686 463.187 27.407 463.547 26.849C463.913 26.291 464.096 25.418 464.096 24.23C464.096 23.06 463.916 22.199 463.556 21.647C463.196 21.089 462.653 20.81 461.927 20.81ZM469.003 29V27.56H470.398V20.927H469.003V19.496H471.937L472.306 21.701C472.66 20.903 473.098 20.297 473.62 19.883C474.148 19.463 474.826 19.253 475.654 19.253C475.936 19.253 476.188 19.277 476.41 19.325C476.638 19.367 476.863 19.424 477.085 19.496L476.482 21.224C476.29 21.17 476.11 21.131 475.942 21.107C475.774 21.077 475.588 21.062 475.384 21.062C474.694 21.062 474.097 21.32 473.593 21.836C473.095 22.352 472.702 23.084 472.414 24.032V27.56H474.331V29H469.003ZM475.303 22.997V20.657L475.555 19.496H477.085L476.743 22.997H475.303ZM486.258 19.244C486.618 19.244 486.942 19.322 487.23 19.478C487.518 19.634 487.743 19.907 487.905 20.297C488.073 20.687 488.157 21.233 488.157 21.935V29H486.366V22.214C486.366 21.716 486.33 21.359 486.258 21.143C486.192 20.927 486.015 20.819 485.727 20.819C485.499 20.819 485.268 20.891 485.034 21.035C484.8 21.173 484.563 21.413 484.323 21.755V29H482.694V22.214C482.694 21.716 482.658 21.359 482.586 21.143C482.52 20.927 482.343 20.819 482.055 20.819C481.821 20.819 481.587 20.891 481.353 21.035C481.125 21.173 480.891 21.413 480.651 21.755V29H478.851V19.496H480.372L480.507 20.522C480.777 20.144 481.071 19.838 481.389 19.604C481.707 19.364 482.091 19.244 482.541 19.244C482.901 19.244 483.228 19.334 483.522 19.514C483.816 19.694 484.032 20.009 484.17 20.459C484.434 20.099 484.734 19.808 485.07 19.586C485.406 19.358 485.802 19.244 486.258 19.244ZM497.761 26.669C497.761 27.041 497.818 27.314 497.932 27.488C498.046 27.656 498.229 27.782 498.481 27.866L498.031 29.234C497.563 29.18 497.161 29.051 496.825 28.847C496.489 28.643 496.234 28.334 496.06 27.92C495.712 28.358 495.271 28.688 494.737 28.91C494.203 29.132 493.633 29.243 493.027 29.243C492.067 29.243 491.305 28.973 490.741 28.433C490.183 27.887 489.904 27.173 489.904 26.291C489.904 25.289 490.294 24.518 491.074 23.978C491.854 23.438 492.97 23.168 494.422 23.168H495.781V22.547C495.781 21.935 495.595 21.494 495.223 21.224C494.857 20.954 494.338 20.819 493.666 20.819C493.354 20.819 492.976 20.861 492.532 20.945C492.088 21.023 491.623 21.146 491.137 21.314L490.642 19.892C491.236 19.67 491.818 19.508 492.388 19.406C492.958 19.298 493.486 19.244 493.972 19.244C495.244 19.244 496.192 19.526 496.816 20.09C497.446 20.654 497.761 21.434 497.761 22.43V26.669ZM493.639 27.758C494.047 27.758 494.446 27.65 494.836 27.434C495.226 27.218 495.541 26.915 495.781 26.525V24.428H494.665C493.717 24.428 493.039 24.587 492.631 24.905C492.223 25.217 492.019 25.649 492.019 26.201C492.019 26.705 492.154 27.092 492.424 27.362C492.7 27.626 493.105 27.758 493.639 27.758ZM509.229 28.496C508.881 28.718 508.464 28.898 507.978 29.036C507.492 29.174 506.985 29.243 506.457 29.243C505.353 29.243 504.513 28.958 503.937 28.388C503.367 27.812 503.082 27.056 503.082 26.12V20.963H500.967V19.496H503.082V17.372L505.098 17.129V19.496H508.302L508.077 20.963H505.098V26.102C505.098 26.612 505.224 26.993 505.476 27.245C505.734 27.491 506.154 27.614 506.736 27.614C507.084 27.614 507.405 27.572 507.699 27.488C507.993 27.404 508.26 27.296 508.5 27.164L509.229 28.496ZM517.277 19.496V27.524H519.86V29H512.417V27.524H515.261V20.972H512.507V19.496H517.277ZM515.873 14.843C516.269 14.843 516.587 14.963 516.827 15.203C517.073 15.443 517.196 15.743 517.196 16.103C517.196 16.463 517.073 16.766 516.827 17.012C516.587 17.258 516.269 17.381 515.873 17.381C515.489 17.381 515.174 17.258 514.928 17.012C514.682 16.766 514.559 16.463 514.559 16.103C514.559 15.743 514.682 15.443 514.928 15.203C515.174 14.963 515.489 14.843 515.873 14.843ZM526.684 19.244C527.614 19.244 528.397 19.451 529.033 19.865C529.669 20.279 530.149 20.858 530.473 21.602C530.803 22.346 530.968 23.222 530.968 24.23C530.968 25.232 530.8 26.111 530.464 26.867C530.134 27.617 529.648 28.202 529.006 28.622C528.37 29.036 527.593 29.243 526.675 29.243C525.757 29.243 524.977 29.042 524.335 28.64C523.699 28.232 523.213 27.653 522.877 26.903C522.547 26.153 522.382 25.268 522.382 24.248C522.382 23.258 522.547 22.388 522.877 21.638C523.213 20.888 523.702 20.303 524.344 19.883C524.986 19.457 525.766 19.244 526.684 19.244ZM526.684 20.81C525.958 20.81 525.412 21.089 525.046 21.647C524.68 22.199 524.497 23.066 524.497 24.248C524.497 25.424 524.677 26.291 525.037 26.849C525.403 27.407 525.949 27.686 526.675 27.686C527.401 27.686 527.944 27.407 528.304 26.849C528.67 26.291 528.853 25.418 528.853 24.23C528.853 23.06 528.673 22.199 528.313 21.647C527.953 21.089 527.41 20.81 526.684 20.81ZM533.67 29V19.496H535.407L535.56 20.729C535.956 20.243 536.424 19.874 536.964 19.622C537.504 19.37 538.059 19.244 538.629 19.244C539.517 19.244 540.18 19.493 540.618 19.991C541.062 20.483 541.284 21.176 541.284 22.07V29H539.268V23.069C539.268 22.517 539.235 22.073 539.169 21.737C539.103 21.401 538.971 21.158 538.773 21.008C538.581 20.858 538.293 20.783 537.909 20.783C537.603 20.783 537.312 20.849 537.036 20.981C536.76 21.113 536.508 21.287 536.28 21.503C536.052 21.713 535.854 21.938 535.686 22.178V29H533.67Z" fill="black"/>
</g>
<defs>
<clipPath id="clip0_13_3955">
<rect width="914" height="82" fill="white"/>
</clipPath>
</defs>
</svg>
