<svg width="924" height="82" viewBox="0 0 924 82" fill="none" xmlns="http://www.w3.org/2000/svg">
<g clip-path="url(#clip0_13_3948)">
<mask id="path-1-inside-1_13_3948" fill="white">
<path fill-rule="evenodd" clip-rule="evenodd" d="M605.929 44L624.21 4.63074C625.521 1.80664 628.352 -2.72209e-07 631.466 0L845.534 1.10851e-05C848.648 1.13573e-05 851.479 1.80665 852.79 4.63075L871.071 44H902.763C912.1 44 917.86 54.1935 913.043 62.1915L904.61 76.1915C902.439 79.796 898.539 82 894.331 82H29.6689C25.461 82 21.5606 79.796 19.3895 76.1915L10.957 62.1915C6.13975 54.1935 11.8998 44 21.2364 44H605.929Z"/>
</mask>
<path fill-rule="evenodd" clip-rule="evenodd" d="M605.929 44L624.21 4.63074C625.521 1.80664 628.352 -2.72209e-07 631.466 0L845.534 1.10851e-05C848.648 1.13573e-05 851.479 1.80665 852.79 4.63075L871.071 44H902.763C912.1 44 917.86 54.1935 913.043 62.1915L904.61 76.1915C902.439 79.796 898.539 82 894.331 82H29.6689C25.461 82 21.5606 79.796 19.3895 76.1915L10.957 62.1915C6.13975 54.1935 11.8998 44 21.2364 44H605.929Z" fill="white"/>
<path d="M605.929 44V46H607.205L607.743 44.8423L605.929 44ZM624.21 4.63074L626.024 5.47305V5.47304L624.21 4.63074ZM631.466 0V2V0ZM845.534 1.10851e-05V-1.99999V1.10851e-05ZM852.79 4.63075L854.604 3.78843V3.78841L852.79 4.63075ZM871.071 44L869.257 44.8423L869.795 46H871.071V44ZM913.043 62.1915L911.33 61.1595V61.1595L913.043 62.1915ZM904.61 76.1915L906.324 77.2234V77.2234L904.61 76.1915ZM19.3895 76.1915L21.1027 75.1595H21.1027L19.3895 76.1915ZM10.957 62.1915L9.24381 63.2234H9.24381L10.957 62.1915ZM607.743 44.8423L626.024 5.47305L622.396 3.78842L604.115 43.1577L607.743 44.8423ZM626.024 5.47304C627.007 3.35498 629.13 2 631.466 2V-2C627.573 -2 624.035 0.258303 622.396 3.78843L626.024 5.47304ZM631.466 2L845.534 2.00001V-1.99999L631.466 -2V2ZM845.534 2.00001C847.87 2.00001 849.993 3.35499 850.976 5.47308L854.604 3.78841C852.965 0.258318 849.427 -1.99999 845.534 -1.99999V2.00001ZM850.976 5.47306L869.257 44.8423L872.885 43.1577L854.604 3.78843L850.976 5.47306ZM871.071 46H902.763V42H871.071V46ZM902.763 46C910.544 46 915.344 54.4946 911.33 61.1595L914.756 63.2234C920.376 53.8924 913.656 42 902.763 42V46ZM911.33 61.1595L902.897 75.1595L906.324 77.2234L914.756 63.2234L911.33 61.1595ZM902.897 75.1595C901.088 78.1633 897.838 80 894.331 80V84C899.24 84 903.791 81.4286 906.324 77.2234L902.897 75.1595ZM894.331 80H29.6689V84H894.331V80ZM29.6689 80C26.1623 80 22.9119 78.1633 21.1027 75.1595L17.6763 77.2234C20.2092 81.4286 24.7597 84 29.6689 84V80ZM21.1027 75.1595L12.6703 61.1595L9.24381 63.2234L17.6763 77.2234L21.1027 75.1595ZM12.6703 61.1595C8.65586 54.4946 13.4559 46 21.2364 46V42C10.3437 42 3.62363 53.8924 9.24381 63.2234L12.6703 61.1595ZM21.2364 46H605.929V42H21.2364V46Z" fill="black" mask="url(#path-1-inside-1_13_3948)"/>
<path d="M657.916 17.216C658.903 17.216 659.736 17.4015 660.415 17.7725C661.101 18.1365 661.623 18.6265 661.98 19.2425C662.344 19.8585 662.526 20.548 662.526 21.311C662.526 21.941 662.414 22.5605 662.19 23.1695C661.973 23.7785 661.619 24.419 661.129 25.091C660.646 25.756 660.006 26.498 659.208 27.317C658.41 28.129 657.433 29.06 656.278 30.11H662.862L662.589 32H653.58V30.215C654.623 29.221 655.515 28.346 656.257 27.59C656.999 26.827 657.619 26.1585 658.116 25.5845C658.613 25.0035 659.005 24.482 659.292 24.02C659.579 23.551 659.782 23.1135 659.901 22.7075C660.027 22.2945 660.09 21.878 660.09 21.458C660.09 20.73 659.883 20.156 659.47 19.736C659.057 19.316 658.483 19.106 657.748 19.106C657.09 19.106 656.544 19.225 656.11 19.463C655.676 19.701 655.246 20.086 654.819 20.618L653.286 19.4525C653.853 18.7315 654.504 18.1785 655.239 17.7935C655.974 17.4085 656.866 17.216 657.916 17.216Z" fill="black"/>
<path d="M758.098 27.49C758.098 28.222 757.909 28.873 757.531 29.443C757.159 30.007 756.619 30.448 755.911 30.766C755.209 31.084 754.36 31.243 753.364 31.243C752.356 31.243 751.471 31.093 750.709 30.793C749.953 30.487 749.314 30.082 748.792 29.578L749.935 28.3C750.379 28.702 750.88 29.02 751.438 29.254C751.996 29.482 752.635 29.596 753.355 29.596C753.823 29.596 754.252 29.524 754.642 29.38C755.032 29.23 755.344 29.008 755.578 28.714C755.812 28.414 755.929 28.039 755.929 27.589C755.929 27.223 755.854 26.914 755.704 26.662C755.554 26.41 755.293 26.182 754.921 25.978C754.555 25.774 754.042 25.576 753.382 25.384C752.506 25.12 751.771 24.826 751.177 24.502C750.583 24.178 750.133 23.791 749.827 23.341C749.527 22.885 749.377 22.333 749.377 21.685C749.377 21.013 749.56 20.425 749.926 19.921C750.298 19.417 750.805 19.027 751.447 18.751C752.095 18.469 752.827 18.328 753.643 18.328C754.543 18.328 755.329 18.457 756.001 18.715C756.673 18.973 757.273 19.342 757.801 19.822L756.703 21.064C756.265 20.68 755.794 20.401 755.29 20.227C754.792 20.053 754.285 19.966 753.769 19.966C753.349 19.966 752.968 20.026 752.626 20.146C752.284 20.266 752.014 20.443 751.816 20.677C751.618 20.911 751.519 21.208 751.519 21.568C751.519 21.886 751.606 22.159 751.78 22.387C751.96 22.615 752.26 22.828 752.68 23.026C753.106 23.218 753.688 23.425 754.426 23.647C755.122 23.851 755.746 24.103 756.298 24.403C756.856 24.703 757.294 25.096 757.612 25.582C757.936 26.068 758.098 26.704 758.098 27.49ZM768.558 30.496C768.21 30.718 767.793 30.898 767.307 31.036C766.821 31.174 766.314 31.243 765.786 31.243C764.682 31.243 763.842 30.958 763.266 30.388C762.696 29.812 762.411 29.056 762.411 28.12V22.963H760.296V21.496H762.411V19.372L764.427 19.129V21.496H767.631L767.406 22.963H764.427V28.102C764.427 28.612 764.553 28.993 764.805 29.245C765.063 29.491 765.483 29.614 766.065 29.614C766.413 29.614 766.734 29.572 767.028 29.488C767.322 29.404 767.589 29.296 767.829 29.164L768.558 30.496ZM773.429 21.496V28.138C773.429 28.702 773.54 29.104 773.762 29.344C773.99 29.584 774.332 29.704 774.788 29.704C775.22 29.704 775.637 29.575 776.039 29.317C776.441 29.059 776.759 28.744 776.993 28.372V21.496H779.009V31H777.272L777.146 29.785C776.792 30.259 776.345 30.622 775.805 30.874C775.265 31.12 774.713 31.243 774.149 31.243C773.231 31.243 772.544 30.991 772.088 30.487C771.638 29.977 771.413 29.278 771.413 28.39V21.496H773.429ZM787.786 17.455L789.802 17.68V31H788.029L787.885 29.83C787.561 30.28 787.174 30.628 786.724 30.874C786.274 31.12 785.77 31.243 785.212 31.243C784.396 31.243 783.724 31.036 783.196 30.622C782.668 30.202 782.275 29.617 782.017 28.867C781.765 28.111 781.639 27.238 781.639 26.248C781.639 25.282 781.789 24.424 782.089 23.674C782.389 22.918 782.818 22.324 783.376 21.892C783.934 21.46 784.606 21.244 785.392 21.244C785.89 21.244 786.337 21.334 786.733 21.514C787.129 21.688 787.48 21.943 787.786 22.279V17.455ZM785.923 22.792C785.245 22.792 784.717 23.074 784.339 23.638C783.961 24.196 783.772 25.066 783.772 26.248C783.772 27.058 783.85 27.718 784.006 28.228C784.162 28.732 784.387 29.104 784.681 29.344C784.975 29.578 785.329 29.695 785.743 29.695C786.199 29.695 786.595 29.563 786.931 29.299C787.267 29.035 787.552 28.717 787.786 28.345V23.845C787.552 23.509 787.279 23.251 786.967 23.071C786.655 22.885 786.307 22.792 785.923 22.792ZM798.191 21.496V29.524H800.774V31H793.331V29.524H796.175V22.972H793.421V21.496H798.191ZM796.787 16.843C797.183 16.843 797.501 16.963 797.741 17.203C797.987 17.443 798.11 17.743 798.11 18.103C798.11 18.463 797.987 18.766 797.741 19.012C797.501 19.258 797.183 19.381 796.787 19.381C796.403 19.381 796.088 19.258 795.842 19.012C795.596 18.766 795.473 18.463 795.473 18.103C795.473 17.743 795.596 17.443 795.842 17.203C796.088 16.963 796.403 16.843 796.787 16.843ZM805.465 26.896C805.507 27.544 805.645 28.075 805.879 28.489C806.113 28.897 806.419 29.197 806.797 29.389C807.181 29.581 807.601 29.677 808.057 29.677C808.525 29.677 808.957 29.605 809.353 29.461C809.749 29.317 810.148 29.113 810.55 28.849L811.423 30.055C810.979 30.415 810.46 30.703 809.866 30.919C809.272 31.135 808.636 31.243 807.958 31.243C806.974 31.243 806.14 31.033 805.456 30.613C804.778 30.193 804.262 29.608 803.908 28.858C803.554 28.108 803.377 27.241 803.377 26.257C803.377 25.303 803.551 24.451 803.899 23.701C804.247 22.945 804.745 22.348 805.393 21.91C806.041 21.466 806.815 21.244 807.715 21.244C808.561 21.244 809.287 21.436 809.893 21.82C810.505 22.204 810.976 22.75 811.306 23.458C811.642 24.16 811.81 25.006 811.81 25.996C811.81 26.158 811.804 26.32 811.792 26.482C811.786 26.638 811.777 26.776 811.765 26.896H805.465ZM807.733 22.738C807.103 22.738 806.581 22.963 806.167 23.413C805.759 23.863 805.522 24.565 805.456 25.519H809.857C809.839 24.625 809.647 23.938 809.281 23.458C808.921 22.978 808.405 22.738 807.733 22.738ZM818.04 29.695C818.67 29.695 819.171 29.584 819.543 29.362C819.915 29.134 820.101 28.822 820.101 28.426C820.101 28.168 820.047 27.949 819.939 27.769C819.831 27.583 819.615 27.415 819.291 27.265C818.967 27.109 818.475 26.947 817.815 26.779C817.191 26.617 816.642 26.425 816.168 26.203C815.7 25.981 815.337 25.693 815.079 25.339C814.821 24.985 814.692 24.529 814.692 23.971C814.692 23.425 814.845 22.948 815.151 22.54C815.457 22.132 815.895 21.814 816.465 21.586C817.041 21.358 817.716 21.244 818.49 21.244C819.288 21.244 819.984 21.349 820.578 21.559C821.172 21.769 821.679 22.03 822.099 22.342L821.253 23.611C820.881 23.365 820.473 23.164 820.029 23.008C819.591 22.852 819.096 22.774 818.544 22.774C817.902 22.774 817.44 22.87 817.158 23.062C816.882 23.254 816.744 23.509 816.744 23.827C816.744 24.061 816.813 24.259 816.951 24.421C817.095 24.577 817.341 24.724 817.689 24.862C818.037 24.994 818.529 25.15 819.165 25.33C819.783 25.498 820.32 25.696 820.776 25.924C821.238 26.152 821.595 26.455 821.847 26.833C822.105 27.205 822.234 27.691 822.234 28.291C822.234 28.975 822.036 29.536 821.64 29.974C821.25 30.406 820.734 30.727 820.092 30.937C819.456 31.141 818.772 31.243 818.04 31.243C817.158 31.243 816.396 31.117 815.754 30.865C815.112 30.607 814.572 30.286 814.134 29.902L815.205 28.678C815.577 28.978 816.003 29.224 816.483 29.416C816.963 29.602 817.482 29.695 818.04 29.695Z" fill="black"/>
</g>
<defs>
<clipPath id="clip0_13_3948">
<rect width="924" height="82" fill="white"/>
</clipPath>
</defs>
</svg>
