<svg width="918" height="82" viewBox="0 0 918 82" fill="none" xmlns="http://www.w3.org/2000/svg">
<g clip-path="url(#clip0_13_3941)">
<mask id="path-1-inside-1_13_3941" fill="white">
<path fill-rule="evenodd" clip-rule="evenodd" d="M331.394 44L348.943 4.73558C350.231 1.8548 353.092 0 356.247 0L561.753 1.03365e-05C564.908 1.06124e-05 567.769 1.85481 569.057 4.73559L586.606 44H896.835C906.156 44 911.918 54.1634 907.132 62.1619L898.754 76.1619C896.587 79.7832 892.677 82 888.457 82H29.543C25.3228 82 21.4129 79.7832 19.2459 76.1619L10.8682 62.1619C6.08183 54.1634 11.8441 44 21.1653 44H331.394Z"/>
</mask>
<path fill-rule="evenodd" clip-rule="evenodd" d="M331.394 44L348.943 4.73558C350.231 1.8548 353.092 0 356.247 0L561.753 1.03365e-05C564.908 1.06124e-05 567.769 1.85481 569.057 4.73559L586.606 44H896.835C906.156 44 911.918 54.1634 907.132 62.1619L898.754 76.1619C896.587 79.7832 892.677 82 888.457 82H29.543C25.3228 82 21.4129 79.7832 19.2459 76.1619L10.8682 62.1619C6.08183 54.1634 11.8441 44 21.1653 44H331.394Z" fill="white"/>
<path d="M331.394 44V46H332.691L333.22 44.8161L331.394 44ZM348.943 4.73558L347.117 3.91946V3.91947L348.943 4.73558ZM356.247 0V-2V0ZM561.753 1.03365e-05V-1.99999V1.03365e-05ZM569.057 4.73559L567.231 5.55167V5.55169L569.057 4.73559ZM586.606 44L584.78 44.8161L585.309 46H586.606V44ZM907.132 62.1619L905.416 61.1349V61.1349L907.132 62.1619ZM898.754 76.1619L897.038 75.1349V75.1349L898.754 76.1619ZM19.2459 76.1619L17.5297 77.1889H17.5297L19.2459 76.1619ZM10.8682 62.1619L12.5844 61.1349L10.8682 62.1619ZM333.22 44.8161L350.769 5.55168L347.117 3.91947L329.568 43.1839L333.22 44.8161ZM350.769 5.55169C351.735 3.3911 353.881 2 356.247 2V-2C352.303 -2 348.727 0.318501 347.117 3.91946L350.769 5.55169ZM356.247 2L561.753 2.00001V-1.99999L356.247 -2V2ZM561.753 2.00001C564.12 2.00001 566.265 3.39113 567.231 5.55167L570.883 3.91951C569.273 0.318498 565.697 -1.99999 561.753 -1.99999V2.00001ZM567.231 5.55169L584.78 44.8161L588.432 43.1839L570.883 3.91948L567.231 5.55169ZM586.606 46H896.835V42H586.606V46ZM896.835 46C904.602 46 909.404 54.4694 905.416 61.1349L908.848 63.1889C914.432 53.8573 907.709 42 896.835 42V46ZM905.416 61.1349L897.038 75.1349L900.47 77.1889L908.848 63.1889L905.416 61.1349ZM897.038 75.1349C895.232 78.1527 891.974 80 888.457 80V84C893.38 84 897.942 81.4137 900.47 77.1889L897.038 75.1349ZM888.457 80H29.543V84H888.457V80ZM29.543 80C26.0262 80 22.7679 78.1526 20.9621 75.1349L17.5297 77.1889C20.0579 81.4137 24.6195 84 29.543 84V80ZM20.9621 75.1349L12.5844 61.1349L9.152 63.1889L17.5297 77.1889L20.9621 75.1349ZM12.5844 61.1349C8.59574 54.4695 13.3976 46 21.1653 46V42C10.2905 42 3.56791 53.8573 9.152 63.1889L12.5844 61.1349ZM21.1653 46H331.394V42H21.1653V46Z" fill="black" mask="url(#path-1-inside-1_13_3941)"/>
<path d="M379.374 15.216C380.333 15.216 381.159 15.384 381.852 15.72C382.545 16.056 383.077 16.5005 383.448 17.0535C383.819 17.6065 384.005 18.2155 384.005 18.8805C384.005 19.4755 383.879 20.0075 383.627 20.4765C383.375 20.9455 383.032 21.334 382.598 21.642C382.164 21.95 381.674 22.167 381.128 22.293C381.737 22.356 382.293 22.524 382.797 22.797C383.301 23.07 383.704 23.4585 384.005 23.9625C384.313 24.4665 384.467 25.1 384.467 25.863C384.467 26.689 384.25 27.438 383.816 28.11C383.389 28.775 382.78 29.3035 381.989 29.6955C381.205 30.0875 380.281 30.2835 379.217 30.2835C378.307 30.2835 377.439 30.1155 376.613 29.7795C375.794 29.4435 375.097 28.936 374.523 28.257L375.962 26.997C376.375 27.48 376.858 27.837 377.411 28.068C377.964 28.299 378.531 28.4145 379.112 28.4145C380.008 28.4145 380.718 28.1835 381.243 27.7215C381.768 27.2525 382.031 26.605 382.031 25.779C382.031 25.149 381.912 24.652 381.674 24.288C381.443 23.917 381.117 23.651 380.697 23.49C380.277 23.329 379.791 23.2485 379.238 23.2485H377.988L378.261 21.516H379.143C379.598 21.516 380.018 21.4355 380.403 21.2745C380.788 21.1065 381.096 20.851 381.327 20.508C381.565 20.165 381.684 19.738 381.684 19.227C381.684 18.52 381.443 17.9775 380.96 17.5995C380.484 17.2215 379.892 17.0325 379.185 17.0325C378.583 17.0325 378.044 17.1445 377.568 17.3685C377.099 17.5855 376.637 17.9075 376.182 18.3345L374.933 17.001C375.57 16.392 376.259 15.944 377.001 15.657C377.743 15.363 378.534 15.216 379.374 15.216Z" fill="black"/>
<path d="M422.186 16.328C423.026 16.328 423.734 16.439 424.31 16.661C424.892 16.877 425.432 17.189 425.93 17.597L424.841 18.893C424.469 18.581 424.07 18.35 423.644 18.2C423.218 18.05 422.765 17.975 422.285 17.975C421.667 17.975 421.097 18.131 420.575 18.443C420.053 18.755 419.633 19.262 419.315 19.964C419.003 20.666 418.847 21.602 418.847 22.772C418.847 23.918 418.997 24.842 419.297 25.544C419.597 26.246 420.008 26.756 420.53 27.074C421.052 27.392 421.637 27.551 422.285 27.551C422.951 27.551 423.503 27.443 423.941 27.227C424.379 27.005 424.766 26.756 425.102 26.48L426.11 27.767C425.696 28.169 425.171 28.517 424.535 28.811C423.899 29.099 423.125 29.243 422.213 29.243C421.163 29.243 420.218 28.997 419.378 28.505C418.544 28.007 417.884 27.278 417.398 26.318C416.918 25.358 416.678 24.176 416.678 22.772C416.678 21.38 416.927 20.207 417.425 19.253C417.923 18.293 418.589 17.567 419.423 17.075C420.257 16.577 421.178 16.328 422.186 16.328ZM429.811 24.896C429.853 25.544 429.991 26.075 430.225 26.489C430.459 26.897 430.765 27.197 431.143 27.389C431.527 27.581 431.947 27.677 432.403 27.677C432.871 27.677 433.303 27.605 433.699 27.461C434.095 27.317 434.494 27.113 434.896 26.849L435.769 28.055C435.325 28.415 434.806 28.703 434.212 28.919C433.618 29.135 432.982 29.243 432.304 29.243C431.32 29.243 430.486 29.033 429.802 28.613C429.124 28.193 428.608 27.608 428.254 26.858C427.9 26.108 427.723 25.241 427.723 24.257C427.723 23.303 427.897 22.451 428.245 21.701C428.593 20.945 429.091 20.348 429.739 19.91C430.387 19.466 431.161 19.244 432.061 19.244C432.907 19.244 433.633 19.436 434.239 19.82C434.851 20.204 435.322 20.75 435.652 21.458C435.988 22.16 436.156 23.006 436.156 23.996C436.156 24.158 436.15 24.32 436.138 24.482C436.132 24.638 436.123 24.776 436.111 24.896H429.811ZM432.079 20.738C431.449 20.738 430.927 20.963 430.513 21.413C430.105 21.863 429.868 22.565 429.802 23.519H434.203C434.185 22.625 433.993 21.938 433.627 21.458C433.267 20.978 432.751 20.738 432.079 20.738ZM439.02 29V27.56H440.415V20.927H439.02V19.496H441.954L442.323 21.701C442.677 20.903 443.115 20.297 443.637 19.883C444.165 19.463 444.843 19.253 445.671 19.253C445.953 19.253 446.205 19.277 446.427 19.325C446.655 19.367 446.88 19.424 447.102 19.496L446.499 21.224C446.307 21.17 446.127 21.131 445.959 21.107C445.791 21.077 445.605 21.062 445.401 21.062C444.711 21.062 444.114 21.32 443.61 21.836C443.112 22.352 442.719 23.084 442.431 24.032V27.56H444.348V29H439.02ZM445.32 22.997V20.657L445.572 19.496H447.102L446.76 22.997H445.32ZM457.661 28.496C457.313 28.718 456.896 28.898 456.41 29.036C455.924 29.174 455.417 29.243 454.889 29.243C453.785 29.243 452.945 28.958 452.369 28.388C451.799 27.812 451.514 27.056 451.514 26.12V20.963H449.399V19.496H451.514V17.372L453.53 17.129V19.496H456.734L456.509 20.963H453.53V26.102C453.53 26.612 453.656 26.993 453.908 27.245C454.166 27.491 454.586 27.614 455.168 27.614C455.516 27.614 455.837 27.572 456.131 27.488C456.425 27.404 456.692 27.296 456.932 27.164L457.661 28.496ZM465.709 19.496V27.524H468.292V29H460.849V27.524H463.693V20.972H460.939V19.496H465.709ZM464.305 14.843C464.701 14.843 465.019 14.963 465.259 15.203C465.505 15.443 465.628 15.743 465.628 16.103C465.628 16.463 465.505 16.766 465.259 17.012C465.019 17.258 464.701 17.381 464.305 17.381C463.921 17.381 463.606 17.258 463.36 17.012C463.114 16.766 462.991 16.463 462.991 16.103C462.991 15.743 463.114 15.443 463.36 15.203C463.606 14.963 463.921 14.843 464.305 14.843ZM477.087 15.455C477.669 15.455 478.188 15.506 478.644 15.608C479.106 15.704 479.532 15.836 479.922 16.004L479.328 17.399C479.01 17.267 478.677 17.171 478.329 17.111C477.987 17.051 477.639 17.021 477.285 17.021C476.661 17.021 476.199 17.141 475.899 17.381C475.599 17.615 475.449 17.987 475.449 18.497V20.18H478.626L478.41 21.665H475.449V29H473.442V21.665H471.282V20.18H473.442V18.479C473.442 17.879 473.592 17.354 473.892 16.904C474.198 16.448 474.624 16.094 475.17 15.842C475.716 15.584 476.355 15.455 477.087 15.455ZM487.295 20.18V27.524H489.878V29H482.435V27.524H485.279V21.665H482.525V20.18H487.295ZM485.891 15.419C486.287 15.419 486.605 15.542 486.845 15.788C487.091 16.028 487.214 16.325 487.214 16.679C487.214 17.045 487.091 17.351 486.845 17.597C486.605 17.843 486.287 17.966 485.891 17.966C485.507 17.966 485.192 17.843 484.946 17.597C484.7 17.351 484.577 17.045 484.577 16.679C484.577 16.325 484.7 16.028 484.946 15.788C485.192 15.542 485.507 15.419 485.891 15.419ZM497.476 27.587C497.92 27.587 498.334 27.512 498.718 27.362C499.102 27.206 499.468 27.005 499.816 26.759L500.752 28.055C500.338 28.409 499.834 28.697 499.24 28.919C498.652 29.135 498.043 29.243 497.413 29.243C496.441 29.243 495.61 29.039 494.92 28.631C494.23 28.217 493.702 27.638 493.336 26.894C492.97 26.15 492.787 25.283 492.787 24.293C492.787 23.327 492.97 22.466 493.336 21.71C493.708 20.948 494.242 20.348 494.938 19.91C495.634 19.466 496.471 19.244 497.449 19.244C498.097 19.244 498.694 19.34 499.24 19.532C499.786 19.724 500.287 20.009 500.743 20.387L499.816 21.656C499.444 21.398 499.063 21.203 498.673 21.071C498.289 20.933 497.893 20.864 497.485 20.864C496.735 20.864 496.12 21.14 495.64 21.692C495.166 22.244 494.929 23.111 494.929 24.293C494.929 25.085 495.037 25.724 495.253 26.21C495.475 26.69 495.778 27.041 496.162 27.263C496.546 27.479 496.984 27.587 497.476 27.587ZM510.951 26.669C510.951 27.041 511.008 27.314 511.122 27.488C511.236 27.656 511.419 27.782 511.671 27.866L511.221 29.234C510.753 29.18 510.351 29.051 510.015 28.847C509.679 28.643 509.424 28.334 509.25 27.92C508.902 28.358 508.461 28.688 507.927 28.91C507.393 29.132 506.823 29.243 506.217 29.243C505.257 29.243 504.495 28.973 503.931 28.433C503.373 27.887 503.094 27.173 503.094 26.291C503.094 25.289 503.484 24.518 504.264 23.978C505.044 23.438 506.16 23.168 507.612 23.168H508.971V22.547C508.971 21.935 508.785 21.494 508.413 21.224C508.047 20.954 507.528 20.819 506.856 20.819C506.544 20.819 506.166 20.861 505.722 20.945C505.278 21.023 504.813 21.146 504.327 21.314L503.832 19.892C504.426 19.67 505.008 19.508 505.578 19.406C506.148 19.298 506.676 19.244 507.162 19.244C508.434 19.244 509.382 19.526 510.006 20.09C510.636 20.654 510.951 21.434 510.951 22.43V26.669ZM506.829 27.758C507.237 27.758 507.636 27.65 508.026 27.434C508.416 27.218 508.731 26.915 508.971 26.525V24.428H507.855C506.907 24.428 506.229 24.587 505.821 24.905C505.413 25.217 505.209 25.649 505.209 26.201C505.209 26.705 505.344 27.092 505.614 27.362C505.89 27.626 506.295 27.758 506.829 27.758ZM522.419 28.496C522.071 28.718 521.654 28.898 521.168 29.036C520.682 29.174 520.175 29.243 519.647 29.243C518.543 29.243 517.703 28.958 517.127 28.388C516.557 27.812 516.272 27.056 516.272 26.12V20.963H514.157V19.496H516.272V17.372L518.288 17.129V19.496H521.492L521.267 20.963H518.288V26.102C518.288 26.612 518.414 26.993 518.666 27.245C518.924 27.491 519.344 27.614 519.926 27.614C520.274 27.614 520.595 27.572 520.889 27.488C521.183 27.404 521.45 27.296 521.69 27.164L522.419 28.496ZM526.948 24.896C526.99 25.544 527.128 26.075 527.362 26.489C527.596 26.897 527.902 27.197 528.28 27.389C528.664 27.581 529.084 27.677 529.54 27.677C530.008 27.677 530.44 27.605 530.836 27.461C531.232 27.317 531.631 27.113 532.033 26.849L532.906 28.055C532.462 28.415 531.943 28.703 531.349 28.919C530.755 29.135 530.119 29.243 529.441 29.243C528.457 29.243 527.623 29.033 526.939 28.613C526.261 28.193 525.745 27.608 525.391 26.858C525.037 26.108 524.86 25.241 524.86 24.257C524.86 23.303 525.034 22.451 525.382 21.701C525.73 20.945 526.228 20.348 526.876 19.91C527.524 19.466 528.298 19.244 529.198 19.244C530.044 19.244 530.77 19.436 531.376 19.82C531.988 20.204 532.459 20.75 532.789 21.458C533.125 22.16 533.293 23.006 533.293 23.996C533.293 24.158 533.287 24.32 533.275 24.482C533.269 24.638 533.26 24.776 533.248 24.896H526.948ZM529.216 20.738C528.586 20.738 528.064 20.963 527.65 21.413C527.242 21.863 527.005 22.565 526.939 23.519H531.34C531.322 22.625 531.13 21.938 530.764 21.458C530.404 20.978 529.888 20.738 529.216 20.738ZM539.523 27.695C540.153 27.695 540.654 27.584 541.026 27.362C541.398 27.134 541.584 26.822 541.584 26.426C541.584 26.168 541.53 25.949 541.422 25.769C541.314 25.583 541.098 25.415 540.774 25.265C540.45 25.109 539.958 24.947 539.298 24.779C538.674 24.617 538.125 24.425 537.651 24.203C537.183 23.981 536.82 23.693 536.562 23.339C536.304 22.985 536.175 22.529 536.175 21.971C536.175 21.425 536.328 20.948 536.634 20.54C536.94 20.132 537.378 19.814 537.948 19.586C538.524 19.358 539.199 19.244 539.973 19.244C540.771 19.244 541.467 19.349 542.061 19.559C542.655 19.769 543.162 20.03 543.582 20.342L542.736 21.611C542.364 21.365 541.956 21.164 541.512 21.008C541.074 20.852 540.579 20.774 540.027 20.774C539.385 20.774 538.923 20.87 538.641 21.062C538.365 21.254 538.227 21.509 538.227 21.827C538.227 22.061 538.296 22.259 538.434 22.421C538.578 22.577 538.824 22.724 539.172 22.862C539.52 22.994 540.012 23.15 540.648 23.33C541.266 23.498 541.803 23.696 542.259 23.924C542.721 24.152 543.078 24.455 543.33 24.833C543.588 25.205 543.717 25.691 543.717 26.291C543.717 26.975 543.519 27.536 543.123 27.974C542.733 28.406 542.217 28.727 541.575 28.937C540.939 29.141 540.255 29.243 539.523 29.243C538.641 29.243 537.879 29.117 537.237 28.865C536.595 28.607 536.055 28.286 535.617 27.902L536.688 26.678C537.06 26.978 537.486 27.224 537.966 27.416C538.446 27.602 538.965 27.695 539.523 27.695Z" fill="black"/>
</g>
<defs>
<clipPath id="clip0_13_3941">
<rect width="918" height="82" fill="white"/>
</clipPath>
</defs>
</svg>
