<svg width="910" height="82" viewBox="0 0 910 82" fill="none" xmlns="http://www.w3.org/2000/svg">
<mask id="path-1-inside-1_13_3934" fill="white">
<path fill-rule="evenodd" clip-rule="evenodd" d="M601.894 44L619.443 4.73558C620.731 1.8548 623.592 0 626.747 0L832.253 1.03365e-05C835.408 1.06124e-05 838.269 1.85481 839.557 4.73559L857.106 44H888.929C898.23 44 903.995 54.123 899.25 62.1222L890.945 76.1222C888.784 79.766 884.861 82 880.625 82H29.3754C25.1387 82 21.2161 79.766 19.0546 76.1222L10.7499 62.1222C6.00489 54.123 11.7701 44 21.0707 44H601.894Z"/>
</mask>
<path fill-rule="evenodd" clip-rule="evenodd" d="M601.894 44L619.443 4.73558C620.731 1.8548 623.592 0 626.747 0L832.253 1.03365e-05C835.408 1.06124e-05 838.269 1.85481 839.557 4.73559L857.106 44H888.929C898.23 44 903.995 54.123 899.25 62.1222L890.945 76.1222C888.784 79.766 884.861 82 880.625 82H29.3754C25.1387 82 21.2161 79.766 19.0546 76.1222L10.7499 62.1222C6.00489 54.123 11.7701 44 21.0707 44H601.894Z" fill="white"/>
<path d="M601.894 44V46H603.191L603.72 44.8161L601.894 44ZM619.443 4.73558L617.617 3.91946V3.91947L619.443 4.73558ZM626.747 0V-2V0ZM832.253 1.03365e-05V-1.99999V1.03365e-05ZM839.557 4.73559L837.731 5.55167V5.55169L839.557 4.73559ZM857.106 44L855.28 44.8161L855.809 46H857.106V44ZM899.25 62.1222L897.53 61.1018V61.1018L899.25 62.1222ZM890.945 76.1222L892.665 77.1426L892.666 77.1426L890.945 76.1222ZM19.0546 76.1222L17.3345 77.1426H17.3345L19.0546 76.1222ZM10.7499 62.1222L12.4701 61.1018H12.4701L10.7499 62.1222ZM603.72 44.8161L621.269 5.55168L617.617 3.91947L600.068 43.1839L603.72 44.8161ZM621.269 5.55169C622.235 3.3911 624.381 2 626.747 2V-2C622.803 -2 619.227 0.318505 617.617 3.91946L621.269 5.55169ZM626.747 2L832.253 2.00001V-1.99999L626.747 -2V2ZM832.253 2.00001C834.62 2.00001 836.765 3.39113 837.731 5.55167L841.383 3.91951C839.773 0.318498 836.197 -1.99999 832.253 -1.99999V2.00001ZM837.731 5.55169L855.28 44.8161L858.932 43.1839L841.383 3.91948L837.731 5.55169ZM857.106 46H888.929V42H857.106V46ZM888.929 46C896.68 46 901.484 54.4359 897.53 61.1018L900.97 63.1426C906.506 53.8102 899.78 42 888.929 42V46ZM897.53 61.1018L889.225 75.1018L892.666 77.1426L900.97 63.1426L897.53 61.1018ZM889.225 75.1018C887.424 78.1383 884.155 80 880.625 80V84C885.567 84 890.144 81.3937 892.665 77.1426L889.225 75.1018ZM880.625 80H29.3754V84H880.625V80ZM29.3754 80C25.8448 80 22.576 78.1383 20.7747 75.1018L17.3345 77.1426C19.8562 81.3936 24.4326 84 29.3754 84V80ZM20.7748 75.1018L12.4701 61.1018L9.0298 63.1425L17.3345 77.1426L20.7748 75.1018ZM12.4701 61.1018C8.51587 54.4358 13.3202 46 21.0707 46V42C10.22 42 3.49392 53.8102 9.0298 63.1425L12.4701 61.1018ZM21.0707 46H601.894V42H21.0707V46Z" fill="black" mask="url(#path-1-inside-1_13_3934)"/>
<path d="M649.664 17.216L651.649 18.0035L647.953 26.834H655.502V28.661H645.496V27.023L649.664 17.216ZM653.78 22.9595V32H651.523L651.502 27.17L651.806 22.9595H653.78Z" fill="black"/>
<path d="M701.261 20.164V23.899H705.761V25.483H701.261V29.416H706.742V31H699.173V18.58H706.643L706.409 20.164H701.261ZM710.938 31H708.706L712.117 25.987L709.084 21.496H711.406L713.35 24.844L715.294 21.496H717.508L714.538 25.906L717.958 31H715.591L713.26 27.121L710.938 31ZM724.962 21.244C725.802 21.244 726.474 21.451 726.978 21.865C727.482 22.273 727.848 22.852 728.076 23.602C728.304 24.346 728.418 25.222 728.418 26.23C728.418 27.196 728.28 28.057 728.004 28.813C727.728 29.569 727.317 30.163 726.771 30.595C726.231 31.027 725.559 31.243 724.755 31.243C723.759 31.243 722.955 30.892 722.343 30.19V34.654L720.327 34.879V21.496H722.082L722.208 22.72C722.568 22.228 722.985 21.859 723.459 21.613C723.939 21.367 724.44 21.244 724.962 21.244ZM724.404 22.801C723.954 22.801 723.558 22.936 723.216 23.206C722.874 23.476 722.583 23.794 722.343 24.16V28.606C722.571 28.948 722.841 29.212 723.153 29.398C723.471 29.578 723.828 29.668 724.224 29.668C724.902 29.668 725.418 29.395 725.772 28.849C726.126 28.303 726.303 27.433 726.303 26.239C726.303 25.429 726.231 24.772 726.087 24.268C725.949 23.758 725.739 23.386 725.457 23.152C725.181 22.918 724.83 22.801 724.404 22.801ZM732.794 26.896C732.836 27.544 732.974 28.075 733.208 28.489C733.442 28.897 733.748 29.197 734.126 29.389C734.51 29.581 734.93 29.677 735.386 29.677C735.854 29.677 736.286 29.605 736.682 29.461C737.078 29.317 737.477 29.113 737.879 28.849L738.752 30.055C738.308 30.415 737.789 30.703 737.195 30.919C736.601 31.135 735.965 31.243 735.287 31.243C734.303 31.243 733.469 31.033 732.785 30.613C732.107 30.193 731.591 29.608 731.237 28.858C730.883 28.108 730.706 27.241 730.706 26.257C730.706 25.303 730.88 24.451 731.228 23.701C731.576 22.945 732.074 22.348 732.722 21.91C733.37 21.466 734.144 21.244 735.044 21.244C735.89 21.244 736.616 21.436 737.222 21.82C737.834 22.204 738.305 22.75 738.635 23.458C738.971 24.16 739.139 25.006 739.139 25.996C739.139 26.158 739.133 26.32 739.121 26.482C739.115 26.638 739.106 26.776 739.094 26.896H732.794ZM735.062 22.738C734.432 22.738 733.91 22.963 733.496 23.413C733.088 23.863 732.851 24.565 732.785 25.519H737.186C737.168 24.625 736.976 23.938 736.61 23.458C736.25 22.978 735.734 22.738 735.062 22.738ZM742.003 31V29.56H743.398V22.927H742.003V21.496H744.937L745.306 23.701C745.66 22.903 746.098 22.297 746.62 21.883C747.148 21.463 747.826 21.253 748.654 21.253C748.936 21.253 749.188 21.277 749.41 21.325C749.638 21.367 749.863 21.424 750.085 21.496L749.482 23.224C749.29 23.17 749.11 23.131 748.942 23.107C748.774 23.077 748.588 23.062 748.384 23.062C747.694 23.062 747.097 23.32 746.593 23.836C746.095 24.352 745.702 25.084 745.414 26.032V29.56H747.331V31H742.003ZM748.303 24.997V22.657L748.555 21.496H750.085L749.743 24.997H748.303ZM757.899 21.496V29.524H760.482V31H753.039V29.524H755.883V22.972H753.129V21.496H757.899ZM756.495 16.843C756.891 16.843 757.209 16.963 757.449 17.203C757.695 17.443 757.818 17.743 757.818 18.103C757.818 18.463 757.695 18.766 757.449 19.012C757.209 19.258 756.891 19.381 756.495 19.381C756.111 19.381 755.796 19.258 755.55 19.012C755.304 18.766 755.181 18.463 755.181 18.103C755.181 17.743 755.304 17.443 755.55 17.203C755.796 16.963 756.111 16.843 756.495 16.843ZM765.172 26.896C765.214 27.544 765.352 28.075 765.586 28.489C765.82 28.897 766.126 29.197 766.504 29.389C766.888 29.581 767.308 29.677 767.764 29.677C768.232 29.677 768.664 29.605 769.06 29.461C769.456 29.317 769.855 29.113 770.257 28.849L771.13 30.055C770.686 30.415 770.167 30.703 769.573 30.919C768.979 31.135 768.343 31.243 767.665 31.243C766.681 31.243 765.847 31.033 765.163 30.613C764.485 30.193 763.969 29.608 763.615 28.858C763.261 28.108 763.084 27.241 763.084 26.257C763.084 25.303 763.258 24.451 763.606 23.701C763.954 22.945 764.452 22.348 765.1 21.91C765.748 21.466 766.522 21.244 767.422 21.244C768.268 21.244 768.994 21.436 769.6 21.82C770.212 22.204 770.683 22.75 771.013 23.458C771.349 24.16 771.517 25.006 771.517 25.996C771.517 26.158 771.511 26.32 771.499 26.482C771.493 26.638 771.484 26.776 771.472 26.896H765.172ZM767.44 22.738C766.81 22.738 766.288 22.963 765.874 23.413C765.466 23.863 765.229 24.565 765.163 25.519H769.564C769.546 24.625 769.354 23.938 768.988 23.458C768.628 22.978 768.112 22.738 767.44 22.738ZM774.291 31V21.496H776.028L776.181 22.729C776.577 22.243 777.045 21.874 777.585 21.622C778.125 21.37 778.68 21.244 779.25 21.244C780.138 21.244 780.801 21.493 781.239 21.991C781.683 22.483 781.905 23.176 781.905 24.07V31H779.889V25.069C779.889 24.517 779.856 24.073 779.79 23.737C779.724 23.401 779.592 23.158 779.394 23.008C779.202 22.858 778.914 22.783 778.53 22.783C778.224 22.783 777.933 22.849 777.657 22.981C777.381 23.113 777.129 23.287 776.901 23.503C776.673 23.713 776.475 23.938 776.307 24.178V31H774.291ZM789.665 29.587C790.109 29.587 790.523 29.512 790.907 29.362C791.291 29.206 791.657 29.005 792.005 28.759L792.941 30.055C792.527 30.409 792.023 30.697 791.429 30.919C790.841 31.135 790.232 31.243 789.602 31.243C788.63 31.243 787.799 31.039 787.109 30.631C786.419 30.217 785.891 29.638 785.525 28.894C785.159 28.15 784.976 27.283 784.976 26.293C784.976 25.327 785.159 24.466 785.525 23.71C785.897 22.948 786.431 22.348 787.127 21.91C787.823 21.466 788.66 21.244 789.638 21.244C790.286 21.244 790.883 21.34 791.429 21.532C791.975 21.724 792.476 22.009 792.932 22.387L792.005 23.656C791.633 23.398 791.252 23.203 790.862 23.071C790.478 22.933 790.082 22.864 789.674 22.864C788.924 22.864 788.309 23.14 787.829 23.692C787.355 24.244 787.118 25.111 787.118 26.293C787.118 27.085 787.226 27.724 787.442 28.21C787.664 28.69 787.967 29.041 788.351 29.263C788.735 29.479 789.173 29.587 789.665 29.587ZM797.551 26.896C797.593 27.544 797.731 28.075 797.965 28.489C798.199 28.897 798.505 29.197 798.883 29.389C799.267 29.581 799.687 29.677 800.143 29.677C800.611 29.677 801.043 29.605 801.439 29.461C801.835 29.317 802.234 29.113 802.636 28.849L803.509 30.055C803.065 30.415 802.546 30.703 801.952 30.919C801.358 31.135 800.722 31.243 800.044 31.243C799.06 31.243 798.226 31.033 797.542 30.613C796.864 30.193 796.348 29.608 795.994 28.858C795.64 28.108 795.463 27.241 795.463 26.257C795.463 25.303 795.637 24.451 795.985 23.701C796.333 22.945 796.831 22.348 797.479 21.91C798.127 21.466 798.901 21.244 799.801 21.244C800.647 21.244 801.373 21.436 801.979 21.82C802.591 22.204 803.062 22.75 803.392 23.458C803.728 24.16 803.896 25.006 803.896 25.996C803.896 26.158 803.89 26.32 803.878 26.482C803.872 26.638 803.863 26.776 803.851 26.896H797.551ZM799.819 22.738C799.189 22.738 798.667 22.963 798.253 23.413C797.845 23.863 797.608 24.565 797.542 25.519H801.943C801.925 24.625 801.733 23.938 801.367 23.458C801.007 22.978 800.491 22.738 799.819 22.738ZM810.126 29.695C810.756 29.695 811.257 29.584 811.629 29.362C812.001 29.134 812.187 28.822 812.187 28.426C812.187 28.168 812.133 27.949 812.025 27.769C811.917 27.583 811.701 27.415 811.377 27.265C811.053 27.109 810.561 26.947 809.901 26.779C809.277 26.617 808.728 26.425 808.254 26.203C807.786 25.981 807.423 25.693 807.165 25.339C806.907 24.985 806.778 24.529 806.778 23.971C806.778 23.425 806.931 22.948 807.237 22.54C807.543 22.132 807.981 21.814 808.551 21.586C809.127 21.358 809.802 21.244 810.576 21.244C811.374 21.244 812.07 21.349 812.664 21.559C813.258 21.769 813.765 22.03 814.185 22.342L813.339 23.611C812.967 23.365 812.559 23.164 812.115 23.008C811.677 22.852 811.182 22.774 810.63 22.774C809.988 22.774 809.526 22.87 809.244 23.062C808.968 23.254 808.83 23.509 808.83 23.827C808.83 24.061 808.899 24.259 809.037 24.421C809.181 24.577 809.427 24.724 809.775 24.862C810.123 24.994 810.615 25.15 811.251 25.33C811.869 25.498 812.406 25.696 812.862 25.924C813.324 26.152 813.681 26.455 813.933 26.833C814.191 27.205 814.32 27.691 814.32 28.291C814.32 28.975 814.122 29.536 813.726 29.974C813.336 30.406 812.82 30.727 812.178 30.937C811.542 31.141 810.858 31.243 810.126 31.243C809.244 31.243 808.482 31.117 807.84 30.865C807.198 30.607 806.658 30.286 806.22 29.902L807.291 28.678C807.663 28.978 808.089 29.224 808.569 29.416C809.049 29.602 809.568 29.695 810.126 29.695Z" fill="black"/>
</svg>
