<svg width="904" height="82" viewBox="0 0 904 82" fill="none" xmlns="http://www.w3.org/2000/svg">
<mask id="path-1-inside-1_13_3927" fill="white">
<path fill-rule="evenodd" clip-rule="evenodd" d="M329.359 44L346.18 4.84248C347.442 1.90431 350.333 0 353.53 0L550.47 9.58758e-06C553.667 9.86714e-06 556.558 1.90431 557.82 4.84248L574.641 44H883C892.285 44 898.052 54.0927 893.339 62.0923L885.089 76.0923C882.931 79.753 878.999 82 874.75 82H29.2499C25.0008 82 21.0686 79.753 18.9114 76.0923L10.6614 62.0922C5.94748 54.0927 11.7148 44 20.9999 44H329.359Z"/>
</mask>
<path fill-rule="evenodd" clip-rule="evenodd" d="M329.359 44L346.18 4.84248C347.442 1.90431 350.333 0 353.53 0L550.47 9.58758e-06C553.667 9.86714e-06 556.558 1.90431 557.82 4.84248L574.641 44H883C892.285 44 898.052 54.0927 893.339 62.0923L885.089 76.0923C882.931 79.753 878.999 82 874.75 82H29.2499C25.0008 82 21.0686 79.753 18.9114 76.0923L10.6614 62.0922C5.94748 54.0927 11.7148 44 20.9999 44H329.359Z" fill="white"/>
<path d="M329.359 44V46H330.677L331.197 44.7894L329.359 44ZM346.18 4.84248L344.342 4.05309V4.0531L346.18 4.84248ZM353.53 0V-2V0ZM550.47 9.58758e-06V-1.99999V9.58758e-06ZM557.82 4.84248L559.658 4.0531V4.05309L557.82 4.84248ZM574.641 44L572.803 44.7894L573.323 46H574.641V44ZM893.339 62.0923L895.062 63.1076V63.1076L893.339 62.0923ZM885.089 76.0923L886.812 77.1077V77.1076L885.089 76.0923ZM18.9114 76.0923L17.1883 77.1076L18.9114 76.0923ZM10.6614 62.0922L12.3845 61.0769H12.3845L10.6614 62.0922ZM331.197 44.7894L348.018 5.63186L344.342 4.0531L327.522 43.2106L331.197 44.7894ZM348.018 5.63187C348.964 3.42822 351.132 2 353.53 2V-2C349.533 -2 345.92 0.380393 344.342 4.05309L348.018 5.63187ZM353.53 2L550.47 2.00001V-1.99999L353.53 -2V2ZM550.47 2.00001C552.868 2.00001 555.036 3.42824 555.983 5.63187L559.658 4.05309C558.08 0.380394 554.467 -1.99999 550.47 -1.99999V2.00001ZM555.983 5.63186L572.803 44.7894L576.479 43.2106L559.658 4.0531L555.983 5.63186ZM574.641 46H883V42H574.641V46ZM883 46C890.738 46 895.544 54.4106 891.615 61.0769L895.062 63.1076C900.561 53.7749 893.833 42 883 42V46ZM891.615 61.0769L883.366 75.0769L886.812 77.1076L895.062 63.1076L891.615 61.0769ZM883.366 75.0769C881.568 78.1275 878.291 80 874.75 80V84C879.707 84 884.295 81.3785 886.812 77.1077L883.366 75.0769ZM874.75 80H29.2499V84H874.75V80ZM29.2499 80C25.709 80 22.4321 78.1275 20.6345 75.0769L17.1883 77.1076C19.705 81.3785 24.2927 84 29.2499 84V80ZM20.6345 75.0769L12.3845 61.0769L8.93836 63.1076L17.1883 77.1076L20.6345 75.0769ZM12.3845 61.0769C8.45622 54.4106 13.2623 46 20.9999 46V42C10.1673 42 3.43874 53.7748 8.93836 63.1076L12.3845 61.0769ZM20.9999 46H329.359V42H20.9999V46Z" fill="black" mask="url(#path-1-inside-1_13_3927)"/>
<path d="M377.152 15.51L376.847 17.274H371.282V21.306C371.695 21.089 372.094 20.942 372.479 20.865C372.871 20.781 373.263 20.739 373.655 20.739C374.425 20.739 375.111 20.921 375.713 21.285C376.315 21.649 376.788 22.174 377.131 22.86C377.481 23.546 377.656 24.3755 377.656 25.3485C377.656 26.3145 377.439 27.172 377.005 27.921C376.578 28.663 375.976 29.244 375.199 29.664C374.422 30.077 373.508 30.2835 372.458 30.2835C371.513 30.2835 370.673 30.1155 369.938 29.7795C369.21 29.4365 368.57 28.971 368.017 28.383L369.424 27.06C369.83 27.508 370.274 27.8475 370.757 28.0785C371.247 28.3025 371.783 28.4145 372.364 28.4145C373.246 28.4145 373.939 28.1485 374.443 27.6165C374.954 27.0775 375.209 26.318 375.209 25.338C375.209 24.624 375.104 24.0605 374.894 23.6475C374.691 23.2275 374.411 22.9265 374.054 22.7445C373.697 22.5625 373.295 22.4715 372.847 22.4715C372.483 22.4715 372.14 22.51 371.818 22.587C371.503 22.664 371.153 22.7865 370.768 22.9545H369.035V15.51H377.152Z" fill="black"/>
<path d="M443.083 29V16.58H445.171V27.254H450.733L450.508 29H443.083ZM460.59 26.669C460.59 27.041 460.647 27.314 460.761 27.488C460.875 27.656 461.058 27.782 461.31 27.866L460.86 29.234C460.392 29.18 459.99 29.051 459.654 28.847C459.318 28.643 459.063 28.334 458.889 27.92C458.541 28.358 458.1 28.688 457.566 28.91C457.032 29.132 456.462 29.243 455.856 29.243C454.896 29.243 454.134 28.973 453.57 28.433C453.012 27.887 452.733 27.173 452.733 26.291C452.733 25.289 453.123 24.518 453.903 23.978C454.683 23.438 455.799 23.168 457.251 23.168H458.61V22.547C458.61 21.935 458.424 21.494 458.052 21.224C457.686 20.954 457.167 20.819 456.495 20.819C456.183 20.819 455.805 20.861 455.361 20.945C454.917 21.023 454.452 21.146 453.966 21.314L453.471 19.892C454.065 19.67 454.647 19.508 455.217 19.406C455.787 19.298 456.315 19.244 456.801 19.244C458.073 19.244 459.021 19.526 459.645 20.09C460.275 20.654 460.59 21.434 460.59 22.43V26.669ZM456.468 27.758C456.876 27.758 457.275 27.65 457.665 27.434C458.055 27.218 458.37 26.915 458.61 26.525V24.428H457.494C456.546 24.428 455.868 24.587 455.46 24.905C455.052 25.217 454.848 25.649 454.848 26.201C454.848 26.705 454.983 27.092 455.253 27.362C455.529 27.626 455.934 27.758 456.468 27.758ZM464.12 29V19.496H465.857L466.01 20.729C466.406 20.243 466.874 19.874 467.414 19.622C467.954 19.37 468.509 19.244 469.079 19.244C469.967 19.244 470.63 19.493 471.068 19.991C471.512 20.483 471.734 21.176 471.734 22.07V29H469.718V23.069C469.718 22.517 469.685 22.073 469.619 21.737C469.553 21.401 469.421 21.158 469.223 21.008C469.031 20.858 468.743 20.783 468.359 20.783C468.053 20.783 467.762 20.849 467.486 20.981C467.21 21.113 466.958 21.287 466.73 21.503C466.502 21.713 466.304 21.938 466.136 22.178V29H464.12ZM482.914 18.29L483.454 19.964C483.076 20.09 482.659 20.174 482.203 20.216C481.753 20.258 481.249 20.279 480.691 20.279C481.261 20.531 481.69 20.855 481.978 21.251C482.266 21.641 482.41 22.121 482.41 22.691C482.41 23.309 482.26 23.861 481.96 24.347C481.66 24.833 481.231 25.214 480.673 25.49C480.115 25.766 479.446 25.904 478.666 25.904C478.39 25.904 478.15 25.892 477.946 25.868C477.748 25.844 477.553 25.805 477.361 25.751C477.241 25.835 477.139 25.949 477.055 26.093C476.977 26.231 476.938 26.378 476.938 26.534C476.938 26.726 477.016 26.894 477.172 27.038C477.334 27.176 477.652 27.245 478.126 27.245H479.782C480.46 27.245 481.057 27.362 481.573 27.596C482.095 27.824 482.503 28.139 482.797 28.541C483.097 28.937 483.247 29.387 483.247 29.891C483.247 30.839 482.839 31.574 482.023 32.096C481.207 32.618 480.031 32.879 478.495 32.879C477.409 32.879 476.557 32.768 475.939 32.546C475.321 32.324 474.886 31.994 474.634 31.556C474.382 31.118 474.256 30.581 474.256 29.945H476.065C476.065 30.275 476.128 30.548 476.254 30.764C476.386 30.98 476.629 31.142 476.983 31.25C477.337 31.358 477.847 31.412 478.513 31.412C479.179 31.412 479.707 31.355 480.097 31.241C480.493 31.133 480.778 30.974 480.952 30.764C481.132 30.56 481.222 30.314 481.222 30.026C481.222 29.642 481.054 29.345 480.718 29.135C480.382 28.925 479.932 28.82 479.368 28.82H477.739C476.839 28.82 476.179 28.637 475.759 28.271C475.345 27.905 475.138 27.479 475.138 26.993C475.138 26.669 475.228 26.357 475.408 26.057C475.594 25.757 475.858 25.496 476.2 25.274C475.63 24.974 475.213 24.611 474.949 24.185C474.691 23.753 474.562 23.231 474.562 22.619C474.562 21.947 474.73 21.359 475.066 20.855C475.402 20.351 475.867 19.958 476.461 19.676C477.061 19.394 477.751 19.253 478.531 19.253C479.293 19.253 479.929 19.214 480.439 19.136C480.949 19.052 481.393 18.935 481.771 18.785C482.155 18.635 482.536 18.47 482.914 18.29ZM478.549 20.639C477.907 20.639 477.424 20.822 477.1 21.188C476.776 21.548 476.614 22.019 476.614 22.601C476.614 23.201 476.779 23.684 477.109 24.05C477.445 24.41 477.934 24.59 478.576 24.59C479.17 24.59 479.623 24.416 479.935 24.068C480.253 23.72 480.412 23.225 480.412 22.583C480.412 21.935 480.256 21.449 479.944 21.125C479.632 20.801 479.167 20.639 478.549 20.639ZM487.722 19.496V26.138C487.722 26.702 487.833 27.104 488.055 27.344C488.283 27.584 488.625 27.704 489.081 27.704C489.513 27.704 489.93 27.575 490.332 27.317C490.734 27.059 491.052 26.744 491.286 26.372V19.496H493.302V29H491.565L491.439 27.785C491.085 28.259 490.638 28.622 490.098 28.874C489.558 29.12 489.006 29.243 488.442 29.243C487.524 29.243 486.837 28.991 486.381 28.487C485.931 27.977 485.706 27.278 485.706 26.39V19.496H487.722ZM503.761 26.669C503.761 27.041 503.818 27.314 503.932 27.488C504.046 27.656 504.229 27.782 504.481 27.866L504.031 29.234C503.563 29.18 503.161 29.051 502.825 28.847C502.489 28.643 502.234 28.334 502.06 27.92C501.712 28.358 501.271 28.688 500.737 28.91C500.203 29.132 499.633 29.243 499.027 29.243C498.067 29.243 497.305 28.973 496.741 28.433C496.183 27.887 495.904 27.173 495.904 26.291C495.904 25.289 496.294 24.518 497.074 23.978C497.854 23.438 498.97 23.168 500.422 23.168H501.781V22.547C501.781 21.935 501.595 21.494 501.223 21.224C500.857 20.954 500.338 20.819 499.666 20.819C499.354 20.819 498.976 20.861 498.532 20.945C498.088 21.023 497.623 21.146 497.137 21.314L496.642 19.892C497.236 19.67 497.818 19.508 498.388 19.406C498.958 19.298 499.486 19.244 499.972 19.244C501.244 19.244 502.192 19.526 502.816 20.09C503.446 20.654 503.761 21.434 503.761 22.43V26.669ZM499.639 27.758C500.047 27.758 500.446 27.65 500.836 27.434C501.226 27.218 501.541 26.915 501.781 26.525V24.428H500.665C499.717 24.428 499.039 24.587 498.631 24.905C498.223 25.217 498.019 25.649 498.019 26.201C498.019 26.705 498.154 27.092 498.424 27.362C498.7 27.626 499.105 27.758 499.639 27.758ZM515.292 18.29L515.832 19.964C515.454 20.09 515.037 20.174 514.581 20.216C514.131 20.258 513.627 20.279 513.069 20.279C513.639 20.531 514.068 20.855 514.356 21.251C514.644 21.641 514.788 22.121 514.788 22.691C514.788 23.309 514.638 23.861 514.338 24.347C514.038 24.833 513.609 25.214 513.051 25.49C512.493 25.766 511.824 25.904 511.044 25.904C510.768 25.904 510.528 25.892 510.324 25.868C510.126 25.844 509.931 25.805 509.739 25.751C509.619 25.835 509.517 25.949 509.433 26.093C509.355 26.231 509.316 26.378 509.316 26.534C509.316 26.726 509.394 26.894 509.55 27.038C509.712 27.176 510.03 27.245 510.504 27.245H512.16C512.838 27.245 513.435 27.362 513.951 27.596C514.473 27.824 514.881 28.139 515.175 28.541C515.475 28.937 515.625 29.387 515.625 29.891C515.625 30.839 515.217 31.574 514.401 32.096C513.585 32.618 512.409 32.879 510.873 32.879C509.787 32.879 508.935 32.768 508.317 32.546C507.699 32.324 507.264 31.994 507.012 31.556C506.76 31.118 506.634 30.581 506.634 29.945H508.443C508.443 30.275 508.506 30.548 508.632 30.764C508.764 30.98 509.007 31.142 509.361 31.25C509.715 31.358 510.225 31.412 510.891 31.412C511.557 31.412 512.085 31.355 512.475 31.241C512.871 31.133 513.156 30.974 513.33 30.764C513.51 30.56 513.6 30.314 513.6 30.026C513.6 29.642 513.432 29.345 513.096 29.135C512.76 28.925 512.31 28.82 511.746 28.82H510.117C509.217 28.82 508.557 28.637 508.137 28.271C507.723 27.905 507.516 27.479 507.516 26.993C507.516 26.669 507.606 26.357 507.786 26.057C507.972 25.757 508.236 25.496 508.578 25.274C508.008 24.974 507.591 24.611 507.327 24.185C507.069 23.753 506.94 23.231 506.94 22.619C506.94 21.947 507.108 21.359 507.444 20.855C507.78 20.351 508.245 19.958 508.839 19.676C509.439 19.394 510.129 19.253 510.909 19.253C511.671 19.253 512.307 19.214 512.817 19.136C513.327 19.052 513.771 18.935 514.149 18.785C514.533 18.635 514.914 18.47 515.292 18.29ZM510.927 20.639C510.285 20.639 509.802 20.822 509.478 21.188C509.154 21.548 508.992 22.019 508.992 22.601C508.992 23.201 509.157 23.684 509.487 24.05C509.823 24.41 510.312 24.59 510.954 24.59C511.548 24.59 512.001 24.416 512.313 24.068C512.631 23.72 512.79 23.225 512.79 22.583C512.79 21.935 512.634 21.449 512.322 21.125C512.01 20.801 511.545 20.639 510.927 20.639ZM519.758 24.896C519.8 25.544 519.938 26.075 520.172 26.489C520.406 26.897 520.712 27.197 521.09 27.389C521.474 27.581 521.894 27.677 522.35 27.677C522.818 27.677 523.25 27.605 523.646 27.461C524.042 27.317 524.441 27.113 524.843 26.849L525.716 28.055C525.272 28.415 524.753 28.703 524.159 28.919C523.565 29.135 522.929 29.243 522.251 29.243C521.267 29.243 520.433 29.033 519.749 28.613C519.071 28.193 518.555 27.608 518.201 26.858C517.847 26.108 517.67 25.241 517.67 24.257C517.67 23.303 517.844 22.451 518.192 21.701C518.54 20.945 519.038 20.348 519.686 19.91C520.334 19.466 521.108 19.244 522.008 19.244C522.854 19.244 523.58 19.436 524.186 19.82C524.798 20.204 525.269 20.75 525.599 21.458C525.935 22.16 526.103 23.006 526.103 23.996C526.103 24.158 526.097 24.32 526.085 24.482C526.079 24.638 526.07 24.776 526.058 24.896H519.758ZM522.026 20.738C521.396 20.738 520.874 20.963 520.46 21.413C520.052 21.863 519.815 22.565 519.749 23.519H524.15C524.132 22.625 523.94 21.938 523.574 21.458C523.214 20.978 522.698 20.738 522.026 20.738ZM532.333 27.695C532.963 27.695 533.464 27.584 533.836 27.362C534.208 27.134 534.394 26.822 534.394 26.426C534.394 26.168 534.34 25.949 534.232 25.769C534.124 25.583 533.908 25.415 533.584 25.265C533.26 25.109 532.768 24.947 532.108 24.779C531.484 24.617 530.935 24.425 530.461 24.203C529.993 23.981 529.63 23.693 529.372 23.339C529.114 22.985 528.985 22.529 528.985 21.971C528.985 21.425 529.138 20.948 529.444 20.54C529.75 20.132 530.188 19.814 530.758 19.586C531.334 19.358 532.009 19.244 532.783 19.244C533.581 19.244 534.277 19.349 534.871 19.559C535.465 19.769 535.972 20.03 536.392 20.342L535.546 21.611C535.174 21.365 534.766 21.164 534.322 21.008C533.884 20.852 533.389 20.774 532.837 20.774C532.195 20.774 531.733 20.87 531.451 21.062C531.175 21.254 531.037 21.509 531.037 21.827C531.037 22.061 531.106 22.259 531.244 22.421C531.388 22.577 531.634 22.724 531.982 22.862C532.33 22.994 532.822 23.15 533.458 23.33C534.076 23.498 534.613 23.696 535.069 23.924C535.531 24.152 535.888 24.455 536.14 24.833C536.398 25.205 536.527 25.691 536.527 26.291C536.527 26.975 536.329 27.536 535.933 27.974C535.543 28.406 535.027 28.727 534.385 28.937C533.749 29.141 533.065 29.243 532.333 29.243C531.451 29.243 530.689 29.117 530.047 28.865C529.405 28.607 528.865 28.286 528.427 27.902L529.498 26.678C529.87 26.978 530.296 27.224 530.776 27.416C531.256 27.602 531.775 27.695 532.333 27.695Z" fill="black"/>
</svg>
