<svg width="897" height="82" viewBox="0 0 897 82" fill="none" xmlns="http://www.w3.org/2000/svg">
<mask id="path-1-inside-1_13_3920" fill="white">
<path fill-rule="evenodd" clip-rule="evenodd" d="M598.859 44L615.68 4.84248C616.942 1.90431 619.833 0 623.03 0L819.97 9.58758e-06C823.167 9.86714e-06 826.058 1.90431 827.32 4.84248L844.141 44H876.083C885.35 44 891.119 54.0573 886.442 62.0571L878.256 76.0571C876.104 79.7377 872.16 82 867.896 82H29.1035C24.8399 82 20.8964 79.7377 18.7444 76.0571L10.5583 62.0571C5.88067 54.0573 11.6504 44 20.9174 44H598.859Z"/>
</mask>
<path fill-rule="evenodd" clip-rule="evenodd" d="M598.859 44L615.68 4.84248C616.942 1.90431 619.833 0 623.03 0L819.97 9.58758e-06C823.167 9.86714e-06 826.058 1.90431 827.32 4.84248L844.141 44H876.083C885.35 44 891.119 54.0573 886.442 62.0571L878.256 76.0571C876.104 79.7377 872.16 82 867.896 82H29.1035C24.8399 82 20.8964 79.7377 18.7444 76.0571L10.5583 62.0571C5.88067 54.0573 11.6504 44 20.9174 44H598.859Z" fill="white"/>
<path d="M598.859 44V46H600.177L600.697 44.7894L598.859 44ZM615.68 4.84248L613.842 4.05309V4.0531L615.68 4.84248ZM623.03 0V-2V0ZM819.97 9.58758e-06V-1.99999V9.58758e-06ZM827.32 4.84248L825.482 5.63184V5.63186L827.32 4.84248ZM844.141 44L842.303 44.7894L842.823 46H844.141V44ZM886.442 62.0571L888.168 63.0667L886.442 62.0571ZM878.256 76.0571L879.982 77.0667V77.0667L878.256 76.0571ZM18.7444 76.0571L17.0178 77.0667L18.7444 76.0571ZM10.5583 62.0571L12.2848 61.0476L10.5583 62.0571ZM600.697 44.7894L617.518 5.63186L613.842 4.0531L597.021 43.2106L600.697 44.7894ZM617.518 5.63187C618.464 3.42823 620.632 2 623.03 2V-2C619.033 -2 615.42 0.380389 613.842 4.05309L617.518 5.63187ZM623.03 2L819.97 2.00001V-1.99999L623.03 -2V2ZM819.97 2.00001C822.368 2.00001 824.536 3.42825 825.482 5.63184L829.158 4.05313C827.58 0.380383 823.967 -1.99999 819.97 -1.99999V2.00001ZM825.482 5.63186L842.303 44.7894L845.979 43.2106L829.158 4.0531L825.482 5.63186ZM844.141 46H876.083V42H844.141V46ZM876.083 46C883.805 46 888.613 54.3811 884.715 61.0476L888.168 63.0667C893.625 53.7336 886.894 42 876.083 42V46ZM884.715 61.0476L876.529 75.0476L879.982 77.0667L888.168 63.0667L884.715 61.0476ZM876.529 75.0476C874.736 78.1148 871.45 80 867.896 80V84C872.871 84 877.471 81.3607 879.982 77.0667L876.529 75.0476ZM867.896 80H29.1035V84H867.896V80ZM29.1035 80C25.5505 80 22.2643 78.1148 20.4709 75.0476L17.0178 77.0667C19.5286 81.3607 24.1293 84 29.1035 84V80ZM20.4709 75.0476L12.2848 61.0476L8.83179 63.0667L17.0178 77.0667L20.4709 75.0476ZM12.2848 61.0476C8.38679 54.3811 13.1949 46 20.9174 46V42C10.1059 42 3.37455 53.7335 8.83179 63.0667L12.2848 61.0476ZM20.9174 46H598.859V42H20.9174V46Z" fill="black" mask="url(#path-1-inside-1_13_3920)"/>
<path d="M643.365 17.216C643.96 17.216 644.503 17.2965 644.993 17.4575C645.49 17.6115 645.941 17.825 646.347 18.098L645.434 19.61C645.126 19.407 644.797 19.2565 644.447 19.1585C644.097 19.0535 643.74 19.001 643.376 19.001C642.683 19.001 642.084 19.2285 641.58 19.6835C641.083 20.1385 640.702 20.786 640.436 21.626C640.17 22.466 640.037 23.467 640.037 24.629L640.058 25.4375C640.058 27.1665 640.254 28.444 640.646 29.27C641.045 30.089 641.724 30.4985 642.683 30.4985C643.488 30.4985 644.086 30.1975 644.478 29.5955C644.877 28.9865 645.077 28.192 645.077 27.212C645.077 26.463 644.986 25.8715 644.804 25.4375C644.622 25.0035 644.366 24.692 644.037 24.503C643.708 24.314 643.32 24.2195 642.872 24.2195C642.235 24.2195 641.657 24.405 641.139 24.776C640.621 25.147 640.194 25.637 639.858 26.246L639.816 24.482C640.285 23.768 640.821 23.2535 641.423 22.9385C642.025 22.6165 642.672 22.4555 643.365 22.4555C644.114 22.4555 644.797 22.6305 645.413 22.9805C646.036 23.3235 646.533 23.8415 646.904 24.5345C647.275 25.2205 647.46 26.078 647.46 27.107C647.46 28.136 647.25 29.039 646.83 29.816C646.417 30.593 645.85 31.1985 645.129 31.6325C644.408 32.0665 643.589 32.2835 642.672 32.2835C641.762 32.2835 640.985 32.112 640.341 31.769C639.704 31.426 639.186 30.9395 638.787 30.3095C638.388 29.6795 638.094 28.9375 637.905 28.0835C637.723 27.2225 637.632 26.281 637.632 25.259C637.632 23.642 637.86 22.2315 638.315 21.0275C638.777 19.8235 639.435 18.889 640.289 18.224C641.143 17.552 642.168 17.216 643.365 17.216Z" fill="black"/>
<path d="M709.872 22.171C709.872 22.783 709.746 23.317 709.494 23.773C709.248 24.223 708.909 24.598 708.477 24.898C708.051 25.198 707.574 25.429 707.046 25.591L710.565 31H708.135L705.012 25.888H703.653V31H701.565V18.58H705.03C706.626 18.58 707.832 18.88 708.648 19.48C709.464 20.074 709.872 20.971 709.872 22.171ZM707.685 22.171C707.685 21.451 707.475 20.932 707.055 20.614C706.641 20.29 706.005 20.128 705.147 20.128H703.653V24.358H705.192C705.99 24.358 706.605 24.19 707.037 23.854C707.469 23.512 707.685 22.951 707.685 22.171ZM714.104 26.896C714.146 27.544 714.284 28.075 714.518 28.489C714.752 28.897 715.058 29.197 715.436 29.389C715.82 29.581 716.24 29.677 716.696 29.677C717.164 29.677 717.596 29.605 717.992 29.461C718.388 29.317 718.787 29.113 719.189 28.849L720.062 30.055C719.618 30.415 719.099 30.703 718.505 30.919C717.911 31.135 717.275 31.243 716.597 31.243C715.613 31.243 714.779 31.033 714.095 30.613C713.417 30.193 712.901 29.608 712.547 28.858C712.193 28.108 712.016 27.241 712.016 26.257C712.016 25.303 712.19 24.451 712.538 23.701C712.886 22.945 713.384 22.348 714.032 21.91C714.68 21.466 715.454 21.244 716.354 21.244C717.2 21.244 717.926 21.436 718.532 21.82C719.144 22.204 719.615 22.75 719.945 23.458C720.281 24.16 720.449 25.006 720.449 25.996C720.449 26.158 720.443 26.32 720.431 26.482C720.425 26.638 720.416 26.776 720.404 26.896H714.104ZM716.372 22.738C715.742 22.738 715.22 22.963 714.806 23.413C714.398 23.863 714.161 24.565 714.095 25.519H718.496C718.478 24.625 718.286 23.938 717.92 23.458C717.56 22.978 717.044 22.738 716.372 22.738ZM729.001 17.455C729.583 17.455 730.102 17.506 730.558 17.608C731.02 17.704 731.446 17.836 731.836 18.004L731.242 19.399C730.924 19.267 730.591 19.171 730.243 19.111C729.901 19.051 729.553 19.021 729.199 19.021C728.575 19.021 728.113 19.141 727.813 19.381C727.513 19.615 727.363 19.987 727.363 20.497V22.18H730.54L730.324 23.665H727.363V31H725.356V23.665H723.196V22.18H725.356V20.479C725.356 19.879 725.506 19.354 725.806 18.904C726.112 18.448 726.538 18.094 727.084 17.842C727.63 17.584 728.269 17.455 729.001 17.455ZM735.69 26.896C735.732 27.544 735.87 28.075 736.104 28.489C736.338 28.897 736.644 29.197 737.022 29.389C737.406 29.581 737.826 29.677 738.282 29.677C738.75 29.677 739.182 29.605 739.578 29.461C739.974 29.317 740.373 29.113 740.775 28.849L741.648 30.055C741.204 30.415 740.685 30.703 740.091 30.919C739.497 31.135 738.861 31.243 738.183 31.243C737.199 31.243 736.365 31.033 735.681 30.613C735.003 30.193 734.487 29.608 734.133 28.858C733.779 28.108 733.602 27.241 733.602 26.257C733.602 25.303 733.776 24.451 734.124 23.701C734.472 22.945 734.97 22.348 735.618 21.91C736.266 21.466 737.04 21.244 737.94 21.244C738.786 21.244 739.512 21.436 740.118 21.82C740.73 22.204 741.201 22.75 741.531 23.458C741.867 24.16 742.035 25.006 742.035 25.996C742.035 26.158 742.029 26.32 742.017 26.482C742.011 26.638 742.002 26.776 741.99 26.896H735.69ZM737.958 22.738C737.328 22.738 736.806 22.963 736.392 23.413C735.984 23.863 735.747 24.565 735.681 25.519H740.082C740.064 24.625 739.872 23.938 739.506 23.458C739.146 22.978 738.63 22.738 737.958 22.738ZM744.899 31V29.56H746.294V22.927H744.899V21.496H747.833L748.202 23.701C748.556 22.903 748.994 22.297 749.516 21.883C750.044 21.463 750.722 21.253 751.55 21.253C751.832 21.253 752.084 21.277 752.306 21.325C752.534 21.367 752.759 21.424 752.981 21.496L752.378 23.224C752.186 23.17 752.006 23.131 751.838 23.107C751.67 23.077 751.484 23.062 751.28 23.062C750.59 23.062 749.993 23.32 749.489 23.836C748.991 24.352 748.598 25.084 748.31 26.032V29.56H750.227V31H744.899ZM751.199 24.997V22.657L751.451 21.496H752.981L752.639 24.997H751.199ZM757.276 26.896C757.318 27.544 757.456 28.075 757.69 28.489C757.924 28.897 758.23 29.197 758.608 29.389C758.992 29.581 759.412 29.677 759.868 29.677C760.336 29.677 760.768 29.605 761.164 29.461C761.56 29.317 761.959 29.113 762.361 28.849L763.234 30.055C762.79 30.415 762.271 30.703 761.677 30.919C761.083 31.135 760.447 31.243 759.769 31.243C758.785 31.243 757.951 31.033 757.267 30.613C756.589 30.193 756.073 29.608 755.719 28.858C755.365 28.108 755.188 27.241 755.188 26.257C755.188 25.303 755.362 24.451 755.71 23.701C756.058 22.945 756.556 22.348 757.204 21.91C757.852 21.466 758.626 21.244 759.526 21.244C760.372 21.244 761.098 21.436 761.704 21.82C762.316 22.204 762.787 22.75 763.117 23.458C763.453 24.16 763.621 25.006 763.621 25.996C763.621 26.158 763.615 26.32 763.603 26.482C763.597 26.638 763.588 26.776 763.576 26.896H757.276ZM759.544 22.738C758.914 22.738 758.392 22.963 757.978 23.413C757.57 23.863 757.333 24.565 757.267 25.519H761.668C761.65 24.625 761.458 23.938 761.092 23.458C760.732 22.978 760.216 22.738 759.544 22.738ZM766.395 31V21.496H768.132L768.285 22.729C768.681 22.243 769.149 21.874 769.689 21.622C770.229 21.37 770.784 21.244 771.354 21.244C772.242 21.244 772.905 21.493 773.343 21.991C773.787 22.483 774.009 23.176 774.009 24.07V31H771.993V25.069C771.993 24.517 771.96 24.073 771.894 23.737C771.828 23.401 771.696 23.158 771.498 23.008C771.306 22.858 771.018 22.783 770.634 22.783C770.328 22.783 770.037 22.849 769.761 22.981C769.485 23.113 769.233 23.287 769.005 23.503C768.777 23.713 768.579 23.938 768.411 24.178V31H766.395ZM781.769 29.587C782.213 29.587 782.627 29.512 783.011 29.362C783.395 29.206 783.761 29.005 784.109 28.759L785.045 30.055C784.631 30.409 784.127 30.697 783.533 30.919C782.945 31.135 782.336 31.243 781.706 31.243C780.734 31.243 779.903 31.039 779.213 30.631C778.523 30.217 777.995 29.638 777.629 28.894C777.263 28.15 777.08 27.283 777.08 26.293C777.08 25.327 777.263 24.466 777.629 23.71C778.001 22.948 778.535 22.348 779.231 21.91C779.927 21.466 780.764 21.244 781.742 21.244C782.39 21.244 782.987 21.34 783.533 21.532C784.079 21.724 784.58 22.009 785.036 22.387L784.109 23.656C783.737 23.398 783.356 23.203 782.966 23.071C782.582 22.933 782.186 22.864 781.778 22.864C781.028 22.864 780.413 23.14 779.933 23.692C779.459 24.244 779.222 25.111 779.222 26.293C779.222 27.085 779.33 27.724 779.546 28.21C779.768 28.69 780.071 29.041 780.455 29.263C780.839 29.479 781.277 29.587 781.769 29.587ZM789.655 26.896C789.697 27.544 789.835 28.075 790.069 28.489C790.303 28.897 790.609 29.197 790.987 29.389C791.371 29.581 791.791 29.677 792.247 29.677C792.715 29.677 793.147 29.605 793.543 29.461C793.939 29.317 794.338 29.113 794.74 28.849L795.613 30.055C795.169 30.415 794.65 30.703 794.056 30.919C793.462 31.135 792.826 31.243 792.148 31.243C791.164 31.243 790.33 31.033 789.646 30.613C788.968 30.193 788.452 29.608 788.098 28.858C787.744 28.108 787.567 27.241 787.567 26.257C787.567 25.303 787.741 24.451 788.089 23.701C788.437 22.945 788.935 22.348 789.583 21.91C790.231 21.466 791.005 21.244 791.905 21.244C792.751 21.244 793.477 21.436 794.083 21.82C794.695 22.204 795.166 22.75 795.496 23.458C795.832 24.16 796 25.006 796 25.996C796 26.158 795.994 26.32 795.982 26.482C795.976 26.638 795.967 26.776 795.955 26.896H789.655ZM791.923 22.738C791.293 22.738 790.771 22.963 790.357 23.413C789.949 23.863 789.712 24.565 789.646 25.519H794.047C794.029 24.625 793.837 23.938 793.471 23.458C793.111 22.978 792.595 22.738 791.923 22.738ZM802.23 29.695C802.86 29.695 803.361 29.584 803.733 29.362C804.105 29.134 804.291 28.822 804.291 28.426C804.291 28.168 804.237 27.949 804.129 27.769C804.021 27.583 803.805 27.415 803.481 27.265C803.157 27.109 802.665 26.947 802.005 26.779C801.381 26.617 800.832 26.425 800.358 26.203C799.89 25.981 799.527 25.693 799.269 25.339C799.011 24.985 798.882 24.529 798.882 23.971C798.882 23.425 799.035 22.948 799.341 22.54C799.647 22.132 800.085 21.814 800.655 21.586C801.231 21.358 801.906 21.244 802.68 21.244C803.478 21.244 804.174 21.349 804.768 21.559C805.362 21.769 805.869 22.03 806.289 22.342L805.443 23.611C805.071 23.365 804.663 23.164 804.219 23.008C803.781 22.852 803.286 22.774 802.734 22.774C802.092 22.774 801.63 22.87 801.348 23.062C801.072 23.254 800.934 23.509 800.934 23.827C800.934 24.061 801.003 24.259 801.141 24.421C801.285 24.577 801.531 24.724 801.879 24.862C802.227 24.994 802.719 25.15 803.355 25.33C803.973 25.498 804.51 25.696 804.966 25.924C805.428 26.152 805.785 26.455 806.037 26.833C806.295 27.205 806.424 27.691 806.424 28.291C806.424 28.975 806.226 29.536 805.83 29.974C805.44 30.406 804.924 30.727 804.282 30.937C803.646 31.141 802.962 31.243 802.23 31.243C801.348 31.243 800.586 31.117 799.944 30.865C799.302 30.607 798.762 30.286 798.324 29.902L799.395 28.678C799.767 28.978 800.193 29.224 800.673 29.416C801.153 29.602 801.672 29.695 802.23 29.695Z" fill="black"/>
</svg>
