<svg width="928" height="154" viewBox="0 0 928 154" fill="none" xmlns="http://www.w3.org/2000/svg">
<g clip-path="url(#clip0_70_418)">
<path d="M14.7669 45H913.233C920.213 45 925.428 51.4175 924 58.2501L906.029 144.25C904.963 149.348 900.469 153 895.261 153H32.7387C27.5308 153 23.0366 149.348 21.9713 144.25L3.99951 58.2501C2.57167 51.4175 7.7867 45 14.7669 45Z" fill="black" stroke="white" stroke-width="2"/>
<g clip-path="url(#clip1_70_418)">
<path d="M308.12 4.96199L327.408 45L53.5917 45L72.8796 4.96197C74.0465 2.53983 76.4974 1.00001 79.186 1.00001L301.814 1.00002C304.503 1.00002 306.954 2.53985 308.12 4.96199Z" fill="black" stroke="black" stroke-width="2"/>
<path d="M119.274 22.55L118.717 26.8865H120.166V28.7765H118.455L118.045 32H115.735L116.155 28.7765H113.793L113.373 32H111.063L111.472 28.7765H110.076V26.8865H111.724L112.302 22.55H110.853V20.6495H112.554L112.963 17.4785H115.284L114.843 20.6495H117.226L117.657 17.4785H119.956L119.526 20.6495H120.943V22.55H119.274ZM114.034 26.8865H116.397L116.974 22.55H114.601L114.034 26.8865Z" fill="white"/>
<path d="M234.434 28.147H230.339L229.565 31H227.018L230.915 18.553H233.939L237.827 31H235.208L234.434 28.147ZM230.78 26.302H233.975L232.382 20.398L230.78 26.302ZM241.636 22.54C241.954 22.12 242.329 21.793 242.761 21.559C243.199 21.319 243.67 21.199 244.174 21.199C245.008 21.199 245.683 21.406 246.199 21.82C246.721 22.228 247.102 22.807 247.342 23.557C247.588 24.307 247.711 25.192 247.711 26.212C247.711 27.19 247.567 28.06 247.279 28.822C246.991 29.584 246.562 30.184 245.992 30.622C245.428 31.054 244.735 31.27 243.913 31.27C242.881 31.27 242.068 30.877 241.474 30.091L241.366 31H239.26V17.662L241.636 17.41V22.54ZM243.301 29.497C243.907 29.497 244.381 29.239 244.723 28.723C245.065 28.207 245.236 27.379 245.236 26.239C245.236 25.435 245.164 24.796 245.02 24.322C244.882 23.842 244.681 23.5 244.417 23.296C244.159 23.086 243.847 22.981 243.481 22.981C243.085 22.981 242.734 23.101 242.428 23.341C242.128 23.581 241.864 23.878 241.636 24.232V28.498C241.84 28.816 242.08 29.062 242.356 29.236C242.632 29.41 242.947 29.497 243.301 29.497ZM254.013 21.199C254.961 21.199 255.765 21.406 256.425 21.82C257.085 22.234 257.586 22.819 257.928 23.575C258.276 24.325 258.45 25.204 258.45 26.212C258.45 27.244 258.276 28.138 257.928 28.894C257.58 29.65 257.076 30.235 256.416 30.649C255.756 31.063 254.952 31.27 254.004 31.27C253.062 31.27 252.258 31.069 251.592 30.667C250.932 30.259 250.428 29.68 250.08 28.93C249.732 28.174 249.558 27.274 249.558 26.23C249.558 25.234 249.732 24.358 250.08 23.602C250.428 22.846 250.935 22.258 251.601 21.838C252.267 21.412 253.071 21.199 254.013 21.199ZM254.013 22.99C253.347 22.99 252.849 23.251 252.519 23.773C252.195 24.295 252.033 25.114 252.033 26.23C252.033 27.358 252.195 28.183 252.519 28.705C252.843 29.221 253.338 29.479 254.004 29.479C254.67 29.479 255.165 29.221 255.489 28.705C255.813 28.183 255.975 27.352 255.975 26.212C255.975 25.102 255.813 24.289 255.489 23.773C255.165 23.251 254.673 22.99 254.013 22.99ZM263.221 21.469V28.075C263.221 28.591 263.323 28.954 263.527 29.164C263.731 29.374 264.028 29.479 264.418 29.479C264.79 29.479 265.153 29.368 265.507 29.146C265.861 28.918 266.149 28.63 266.371 28.282V21.469H268.747V31H266.677L266.551 29.83C266.209 30.298 265.771 30.655 265.237 30.901C264.703 31.147 264.151 31.27 263.581 31.27C262.663 31.27 261.976 31.012 261.52 30.496C261.07 29.974 260.845 29.263 260.845 28.363V21.469H263.221ZM279.864 30.469C279.51 30.703 279.081 30.895 278.577 31.045C278.073 31.195 277.527 31.27 276.939 31.27C275.775 31.27 274.899 30.97 274.311 30.37C273.723 29.764 273.429 28.96 273.429 27.958V23.152H271.359V21.469H273.429V19.372L275.805 19.084V21.469H278.955L278.712 23.152H275.805V27.949C275.805 28.441 275.925 28.801 276.165 29.029C276.405 29.257 276.792 29.371 277.326 29.371C277.668 29.371 277.98 29.332 278.262 29.254C278.55 29.17 278.811 29.065 279.045 28.939L279.864 30.469Z" fill="white"/>
</g>
</g>
<defs>
<clipPath id="clip0_70_418">
<rect width="928" height="154" fill="white"/>
</clipPath>
<clipPath id="clip1_70_418">
<rect width="277" height="46" fill="white" transform="translate(52)"/>
</clipPath>
</defs>
</svg>
