<svg width="1090" height="733" viewBox="0 0 1090 733" fill="none" xmlns="http://www.w3.org/2000/svg">
<path d="M994.649 630L95.351 630C87.6997 630 81.7031 623.425 82.4059 615.806L135.823 36.8061C136.44 30.1176 142.051 25.0005 148.768 25.0004L941.232 25.0001C947.949 25.0001 953.56 30.1172 954.177 36.8058L1007.59 615.806C1008.3 623.425 1002.3 630 994.649 630Z" fill="#010000" stroke="black" stroke-width="2"/>
<g clip-path="url(#clip0_71_469)">
<path d="M137.438 92H952.562C960.959 92 966.259 101.028 962.168 108.36L954.356 122.36C952.413 125.842 948.738 128 944.75 128H145.249C141.262 128 137.587 125.842 135.644 122.36L127.832 108.36C123.741 101.028 129.041 92 137.438 92Z" fill="black" stroke="white" stroke-width="2"/>
<g clip-path="url(#clip1_71_469)">
<path d="M791.883 52.0519L810.433 92L546.567 92L565.117 52.0519C566.264 49.5808 568.741 48 571.466 48L785.534 48C788.259 48 790.736 49.5808 791.883 52.0519Z" fill="black" stroke="white" stroke-width="2"/>
<path d="M548.625 91L546 96.5L548 93H679V91H548.625Z" fill="black"/>
<path d="M551.25 85.5L548.625 91M548.625 91L546 96.5L548 93H679V91H548.625Z" stroke="black"/>
<path d="M808.375 91L811 96.5L809 93H678V91H808.375Z" fill="black"/>
<path d="M805.75 85.5L808.375 91M808.375 91L811 96.5L809 93H678V91H808.375Z" stroke="black"/>
<path d="M602.274 69.55L601.717 73.8865H603.166V75.7765H601.455L601.045 79H598.735L599.155 75.7765H596.793L596.373 79H594.063L594.472 75.7765H593.076V73.8865H594.724L595.302 69.55H593.853V67.6495H595.554L595.963 64.4785H598.284L597.843 67.6495H600.226L600.657 64.4785H602.956L602.526 67.6495H603.943V69.55H602.274ZM597.034 73.8865H599.397L599.974 69.55H597.601L597.034 73.8865Z" fill="white"/>
<path d="M685.023 69.54C685.023 69.024 684.924 68.607 684.726 68.289C684.534 67.965 684.252 67.728 683.88 67.578C683.508 67.428 683.061 67.353 682.539 67.353H681.252V71.862H682.611C683.103 71.862 683.526 71.787 683.88 71.637C684.24 71.481 684.519 71.232 684.717 70.89C684.921 70.548 685.023 70.098 685.023 69.54ZM687.579 69.522C687.579 70.488 687.372 71.28 686.958 71.898C686.55 72.51 685.977 72.963 685.239 73.257C684.501 73.545 683.649 73.689 682.683 73.689H681.252V78H678.786V65.553H682.449C684.063 65.553 685.32 65.88 686.22 66.534C687.126 67.188 687.579 68.184 687.579 69.522ZM689.66 78V76.353H691.001V70.107H689.66V68.469H692.81L693.251 70.656C693.599 69.846 694.037 69.237 694.565 68.829C695.093 68.415 695.756 68.208 696.554 68.208C696.86 68.208 697.13 68.232 697.364 68.28C697.604 68.328 697.832 68.391 698.048 68.469L697.337 70.467C697.151 70.419 696.974 70.383 696.806 70.359C696.638 70.329 696.449 70.314 696.239 70.314C695.579 70.314 695.003 70.572 694.511 71.088C694.025 71.598 693.647 72.291 693.377 73.167V76.353H695.276V78H689.66ZM696.041 72.186V69.657L696.365 68.469H698.048L697.625 72.186H696.041ZM704.323 68.199C705.271 68.199 706.075 68.406 706.735 68.82C707.395 69.234 707.896 69.819 708.238 70.575C708.586 71.325 708.76 72.204 708.76 73.212C708.76 74.244 708.586 75.138 708.238 75.894C707.89 76.65 707.386 77.235 706.726 77.649C706.066 78.063 705.262 78.27 704.314 78.27C703.372 78.27 702.568 78.069 701.902 77.667C701.242 77.259 700.738 76.68 700.39 75.93C700.042 75.174 699.868 74.274 699.868 73.23C699.868 72.234 700.042 71.358 700.39 70.602C700.738 69.846 701.245 69.258 701.911 68.838C702.577 68.412 703.381 68.199 704.323 68.199ZM704.323 69.99C703.657 69.99 703.159 70.251 702.829 70.773C702.505 71.295 702.343 72.114 702.343 73.23C702.343 74.358 702.505 75.183 702.829 75.705C703.153 76.221 703.648 76.479 704.314 76.479C704.98 76.479 705.475 76.221 705.799 75.705C706.123 75.183 706.285 74.352 706.285 73.212C706.285 72.102 706.123 71.289 705.799 70.773C705.475 70.251 704.983 69.99 704.323 69.99ZM719.787 68.469L716.556 78.018C716.292 78.798 715.95 79.467 715.53 80.025C715.11 80.583 714.579 81.024 713.937 81.348C713.301 81.678 712.521 81.873 711.597 81.933L711.3 80.214C711.942 80.124 712.455 79.989 712.839 79.809C713.223 79.629 713.529 79.392 713.757 79.098C713.991 78.804 714.192 78.438 714.36 78H713.55L710.427 68.469H712.938L715.098 76.416L717.348 68.469H719.787ZM723.974 73.959C724.022 74.553 724.157 75.036 724.379 75.408C724.607 75.78 724.898 76.053 725.252 76.227C725.606 76.401 725.999 76.488 726.431 76.488C726.887 76.488 727.316 76.416 727.718 76.272C728.12 76.128 728.516 75.927 728.906 75.669L729.896 77.028C729.452 77.4 728.921 77.7 728.303 77.928C727.691 78.156 727.016 78.27 726.278 78.27C725.246 78.27 724.376 78.057 723.668 77.631C722.966 77.205 722.435 76.614 722.075 75.858C721.715 75.102 721.535 74.232 721.535 73.248C721.535 72.3 721.712 71.445 722.066 70.683C722.42 69.921 722.93 69.318 723.596 68.874C724.262 68.424 725.066 68.199 726.008 68.199C726.884 68.199 727.64 68.391 728.276 68.775C728.912 69.159 729.404 69.711 729.752 70.431C730.1 71.145 730.274 72.006 730.274 73.014C730.274 73.176 730.268 73.341 730.256 73.509C730.25 73.677 730.241 73.827 730.229 73.959H723.974ZM726.017 69.873C725.441 69.873 724.967 70.08 724.595 70.494C724.229 70.902 724.013 71.55 723.947 72.438H727.961C727.949 71.634 727.781 71.007 727.457 70.557C727.139 70.101 726.659 69.873 726.017 69.873ZM737.539 76.362C737.959 76.362 738.352 76.284 738.718 76.128C739.09 75.972 739.447 75.774 739.789 75.534L740.869 77.055C740.449 77.409 739.942 77.7 739.348 77.928C738.754 78.156 738.118 78.27 737.44 78.27C736.444 78.27 735.589 78.063 734.875 77.649C734.167 77.229 733.621 76.647 733.237 75.903C732.859 75.153 732.67 74.283 732.67 73.293C732.67 72.315 732.862 71.442 733.246 70.674C733.636 69.9 734.188 69.294 734.902 68.856C735.622 68.418 736.48 68.199 737.476 68.199C738.16 68.199 738.778 68.298 739.33 68.496C739.888 68.688 740.398 68.976 740.86 69.36L739.807 70.818C739.453 70.572 739.087 70.386 738.709 70.26C738.337 70.128 737.95 70.062 737.548 70.062C736.846 70.062 736.273 70.317 735.829 70.827C735.391 71.331 735.172 72.153 735.172 73.293C735.172 74.043 735.274 74.643 735.478 75.093C735.688 75.543 735.97 75.867 736.324 76.065C736.684 76.263 737.089 76.362 737.539 76.362ZM751.761 77.469C751.407 77.703 750.978 77.895 750.474 78.045C749.97 78.195 749.424 78.27 748.836 78.27C747.672 78.27 746.796 77.97 746.208 77.37C745.62 76.764 745.326 75.96 745.326 74.958V70.152H743.256V68.469H745.326V66.372L747.702 66.084V68.469H750.852L750.609 70.152H747.702V74.949C747.702 75.441 747.822 75.801 748.062 76.029C748.302 76.257 748.689 76.371 749.223 76.371C749.565 76.371 749.877 76.332 750.159 76.254C750.447 76.17 750.708 76.065 750.942 75.939L751.761 77.469ZM757.955 76.515C758.513 76.515 758.96 76.419 759.296 76.227C759.638 76.029 759.809 75.753 759.809 75.399C759.809 75.165 759.752 74.967 759.638 74.805C759.53 74.643 759.314 74.493 758.99 74.355C758.666 74.211 758.18 74.052 757.532 73.878C756.92 73.722 756.383 73.53 755.921 73.302C755.465 73.068 755.108 72.768 754.85 72.402C754.598 72.036 754.472 71.574 754.472 71.016C754.472 70.458 754.628 69.969 754.94 69.549C755.252 69.123 755.702 68.793 756.29 68.559C756.884 68.319 757.598 68.199 758.432 68.199C759.248 68.199 759.962 68.307 760.574 68.523C761.186 68.733 761.711 68.997 762.149 69.315L761.177 70.764C760.793 70.518 760.376 70.32 759.926 70.17C759.482 70.014 759.002 69.936 758.486 69.936C757.928 69.936 757.52 70.017 757.262 70.179C757.01 70.341 756.884 70.566 756.884 70.854C756.884 71.058 756.947 71.232 757.073 71.376C757.205 71.514 757.439 71.649 757.775 71.781C758.117 71.907 758.603 72.06 759.233 72.24C759.851 72.408 760.388 72.606 760.844 72.834C761.306 73.062 761.663 73.365 761.915 73.743C762.167 74.121 762.293 74.616 762.293 75.228C762.293 75.918 762.092 76.488 761.69 76.938C761.288 77.388 760.757 77.724 760.097 77.946C759.443 78.162 758.732 78.27 757.964 78.27C757.064 78.27 756.278 78.141 755.606 77.883C754.934 77.625 754.364 77.292 753.896 76.884L755.129 75.498C755.501 75.792 755.924 76.035 756.398 76.227C756.878 76.419 757.397 76.515 757.955 76.515Z" fill="white"/>
</g>
</g>
<g clip-path="url(#clip2_71_469)">
<path d="M120.835 272H969.165C977.643 272 982.934 281.187 978.68 288.52L970.557 302.52C968.589 305.912 964.964 308 961.043 308H128.957C125.036 308 121.411 305.912 119.443 302.52L111.32 288.52C107.066 281.187 112.357 272 120.835 272Z" fill="black" stroke="white" stroke-width="2"/>
<g clip-path="url(#clip3_71_469)">
<path d="M524.883 232.052L543.433 272L279.567 272L298.117 232.052C299.264 229.581 301.741 228 304.466 228L518.534 228C521.259 228 523.736 229.581 524.883 232.052Z" fill="black" stroke="white" stroke-width="2"/>
<path d="M335.274 249.55L334.717 253.886H336.166V255.776H334.455L334.045 259H331.735L332.155 255.776H329.793L329.373 259H327.063L327.472 255.776H326.076V253.886H327.724L328.302 249.55H326.853V247.649H328.554L328.963 244.478H331.284L330.843 247.649H333.226L333.657 244.478H335.956L335.526 247.649H336.943V249.55H335.274ZM330.034 253.886H332.397L332.974 249.55H330.601L330.034 253.886Z" fill="white"/>
<path d="M442.147 254.427C442.147 255.183 441.952 255.849 441.562 256.425C441.178 257.001 440.623 257.454 439.897 257.784C439.171 258.108 438.292 258.27 437.26 258.27C436.18 258.27 435.253 258.111 434.479 257.793C433.705 257.469 433.057 257.055 432.535 256.551L433.831 255.102C434.281 255.504 434.785 255.819 435.343 256.047C435.901 256.275 436.528 256.389 437.224 256.389C437.668 256.389 438.067 256.32 438.421 256.182C438.781 256.044 439.063 255.843 439.267 255.579C439.477 255.309 439.582 254.979 439.582 254.589C439.582 254.247 439.51 253.959 439.366 253.725C439.222 253.491 438.973 253.281 438.619 253.095C438.271 252.909 437.785 252.723 437.161 252.537C436.243 252.255 435.487 251.946 434.893 251.61C434.299 251.268 433.858 250.866 433.57 250.404C433.282 249.936 433.138 249.384 433.138 248.748C433.138 248.034 433.336 247.419 433.732 246.903C434.128 246.381 434.662 245.982 435.334 245.706C436.012 245.424 436.768 245.283 437.602 245.283C438.526 245.283 439.339 245.418 440.041 245.688C440.743 245.952 441.361 246.33 441.895 246.822L440.662 248.217C440.236 247.851 439.774 247.581 439.276 247.407C438.784 247.233 438.283 247.146 437.773 247.146C437.371 247.146 437.011 247.2 436.693 247.308C436.381 247.416 436.135 247.575 435.955 247.785C435.775 247.995 435.685 248.262 435.685 248.586C435.685 248.88 435.766 249.132 435.928 249.342C436.096 249.546 436.381 249.738 436.783 249.918C437.185 250.092 437.737 250.29 438.439 250.512C439.177 250.734 439.822 251.001 440.374 251.313C440.932 251.625 441.367 252.03 441.679 252.528C441.991 253.02 442.147 253.653 442.147 254.427ZM453.039 248.469L449.502 252.717L453.381 258H450.582L446.91 252.78L450.42 248.469H453.039ZM446.775 244.41V258H444.399V244.662L446.775 244.41ZM460.637 248.469V256.317H463.148V258H455.471V256.317H458.261V250.152H455.561V248.469H460.637ZM459.098 243.663C459.536 243.663 459.89 243.798 460.16 244.068C460.436 244.338 460.574 244.674 460.574 245.076C460.574 245.478 460.436 245.817 460.16 246.093C459.89 246.363 459.536 246.498 459.098 246.498C458.66 246.498 458.303 246.363 458.027 246.093C457.751 245.817 457.613 245.478 457.613 245.076C457.613 244.674 457.751 244.338 458.027 244.068C458.303 243.798 458.66 243.663 459.098 243.663ZM470.485 244.662V255.228C470.485 255.642 470.605 255.936 470.845 256.11C471.091 256.284 471.421 256.371 471.835 256.371C472.093 256.371 472.342 256.344 472.582 256.29C472.822 256.23 473.05 256.158 473.266 256.074L473.851 257.694C473.551 257.844 473.185 257.976 472.753 258.09C472.327 258.21 471.832 258.27 471.268 258.27C470.23 258.27 469.444 257.973 468.91 257.379C468.376 256.785 468.109 255.984 468.109 254.976V246.345H465.256V244.662H470.485ZM481.278 244.662V255.228C481.278 255.642 481.398 255.936 481.638 256.11C481.884 256.284 482.214 256.371 482.628 256.371C482.886 256.371 483.135 256.344 483.375 256.29C483.615 256.23 483.843 256.158 484.059 256.074L484.644 257.694C484.344 257.844 483.978 257.976 483.546 258.09C483.12 258.21 482.625 258.27 482.061 258.27C481.023 258.27 480.237 257.973 479.703 257.379C479.169 256.785 478.902 255.984 478.902 254.976V246.345H476.049V244.662H481.278ZM491.162 256.515C491.72 256.515 492.167 256.419 492.503 256.227C492.845 256.029 493.016 255.753 493.016 255.399C493.016 255.165 492.959 254.967 492.845 254.805C492.737 254.643 492.521 254.493 492.197 254.355C491.873 254.211 491.387 254.052 490.739 253.878C490.127 253.722 489.59 253.53 489.128 253.302C488.672 253.068 488.315 252.768 488.057 252.402C487.805 252.036 487.679 251.574 487.679 251.016C487.679 250.458 487.835 249.969 488.147 249.549C488.459 249.123 488.909 248.793 489.497 248.559C490.091 248.319 490.805 248.199 491.639 248.199C492.455 248.199 493.169 248.307 493.781 248.523C494.393 248.733 494.918 248.997 495.356 249.315L494.384 250.764C494 250.518 493.583 250.32 493.133 250.17C492.689 250.014 492.209 249.936 491.693 249.936C491.135 249.936 490.727 250.017 490.469 250.179C490.217 250.341 490.091 250.566 490.091 250.854C490.091 251.058 490.154 251.232 490.28 251.376C490.412 251.514 490.646 251.649 490.982 251.781C491.324 251.907 491.81 252.06 492.44 252.24C493.058 252.408 493.595 252.606 494.051 252.834C494.513 253.062 494.87 253.365 495.122 253.743C495.374 254.121 495.5 254.616 495.5 255.228C495.5 255.918 495.299 256.488 494.897 256.938C494.495 257.388 493.964 257.724 493.304 257.946C492.65 258.162 491.939 258.27 491.171 258.27C490.271 258.27 489.485 258.141 488.813 257.883C488.141 257.625 487.571 257.292 487.103 256.884L488.336 255.498C488.708 255.792 489.131 256.035 489.605 256.227C490.085 256.419 490.604 256.515 491.162 256.515Z" fill="white"/>
<path d="M281.625 271L279 276.5L281 273H412V271H281.625Z" fill="black"/>
<path d="M284.25 265.5L281.625 271M281.625 271L279 276.5L281 273H412V271H281.625Z" stroke="black"/>
<path d="M541.375 271L544 276.5L542 273H411V271H541.375Z" fill="black"/>
<path d="M538.75 265.5L541.375 271M541.375 271L544 276.5L542 273H411V271H541.375Z" stroke="black"/>
</g>
</g>
<g clip-path="url(#clip4_71_469)">
<path d="M95.7669 524H994.233C1001.21 524 1006.43 530.417 1005 537.25L987.029 623.25C985.963 628.348 981.469 632 976.261 632H113.739C108.531 632 104.037 628.348 102.971 623.25L84.9995 537.25C83.5717 530.417 88.7867 524 95.7669 524Z" fill="black" stroke="white" stroke-width="2"/>
<g clip-path="url(#clip5_71_469)">
<path d="M389.12 483.962L408.408 524L134.592 524L153.88 483.962C155.046 481.54 157.497 480 160.186 480L382.814 480C385.503 480 387.954 481.54 389.12 483.962Z" fill="black" stroke="white" stroke-width="2"/>
<path d="M200.274 501.55L199.717 505.886H201.166V507.776H199.455L199.045 511H196.735L197.155 507.776H194.793L194.373 511H192.063L192.472 507.776H191.076V505.886H192.724L193.302 501.55H191.853V499.649H193.554L193.963 496.478H196.284L195.843 499.649H198.226L198.657 496.478H200.956L200.526 499.649H201.943V501.55H200.274ZM195.034 505.886H197.397L197.974 501.55H195.601L195.034 505.886Z" fill="white"/>
<path d="M315.434 507.147H311.339L310.565 510H308.018L311.915 497.553H314.939L318.827 510H316.208L315.434 507.147ZM311.78 505.302H314.975L313.382 499.398L311.78 505.302ZM322.636 501.54C322.954 501.12 323.329 500.793 323.761 500.559C324.199 500.319 324.67 500.199 325.174 500.199C326.008 500.199 326.683 500.406 327.199 500.82C327.721 501.228 328.102 501.807 328.342 502.557C328.588 503.307 328.711 504.192 328.711 505.212C328.711 506.19 328.567 507.06 328.279 507.822C327.991 508.584 327.562 509.184 326.992 509.622C326.428 510.054 325.735 510.27 324.913 510.27C323.881 510.27 323.068 509.877 322.474 509.091L322.366 510H320.26V496.662L322.636 496.41V501.54ZM324.301 508.497C324.907 508.497 325.381 508.239 325.723 507.723C326.065 507.207 326.236 506.379 326.236 505.239C326.236 504.435 326.164 503.796 326.02 503.322C325.882 502.842 325.681 502.5 325.417 502.296C325.159 502.086 324.847 501.981 324.481 501.981C324.085 501.981 323.734 502.101 323.428 502.341C323.128 502.581 322.864 502.878 322.636 503.232V507.498C322.84 507.816 323.08 508.062 323.356 508.236C323.632 508.41 323.947 508.497 324.301 508.497ZM335.013 500.199C335.961 500.199 336.765 500.406 337.425 500.82C338.085 501.234 338.586 501.819 338.928 502.575C339.276 503.325 339.45 504.204 339.45 505.212C339.45 506.244 339.276 507.138 338.928 507.894C338.58 508.65 338.076 509.235 337.416 509.649C336.756 510.063 335.952 510.27 335.004 510.27C334.062 510.27 333.258 510.069 332.592 509.667C331.932 509.259 331.428 508.68 331.08 507.93C330.732 507.174 330.558 506.274 330.558 505.23C330.558 504.234 330.732 503.358 331.08 502.602C331.428 501.846 331.935 501.258 332.601 500.838C333.267 500.412 334.071 500.199 335.013 500.199ZM335.013 501.99C334.347 501.99 333.849 502.251 333.519 502.773C333.195 503.295 333.033 504.114 333.033 505.23C333.033 506.358 333.195 507.183 333.519 507.705C333.843 508.221 334.338 508.479 335.004 508.479C335.67 508.479 336.165 508.221 336.489 507.705C336.813 507.183 336.975 506.352 336.975 505.212C336.975 504.102 336.813 503.289 336.489 502.773C336.165 502.251 335.673 501.99 335.013 501.99ZM344.221 500.469V507.075C344.221 507.591 344.323 507.954 344.527 508.164C344.731 508.374 345.028 508.479 345.418 508.479C345.79 508.479 346.153 508.368 346.507 508.146C346.861 507.918 347.149 507.63 347.371 507.282V500.469H349.747V510H347.677L347.551 508.83C347.209 509.298 346.771 509.655 346.237 509.901C345.703 510.147 345.151 510.27 344.581 510.27C343.663 510.27 342.976 510.012 342.52 509.496C342.07 508.974 341.845 508.263 341.845 507.363V500.469H344.221ZM360.864 509.469C360.51 509.703 360.081 509.895 359.577 510.045C359.073 510.195 358.527 510.27 357.939 510.27C356.775 510.27 355.899 509.97 355.311 509.37C354.723 508.764 354.429 507.96 354.429 506.958V502.152H352.359V500.469H354.429V498.372L356.805 498.084V500.469H359.955L359.712 502.152H356.805V506.949C356.805 507.441 356.925 507.801 357.165 508.029C357.405 508.257 357.792 508.371 358.326 508.371C358.668 508.371 358.98 508.332 359.262 508.254C359.55 508.17 359.811 508.065 360.045 507.939L360.864 509.469Z" fill="white"/>
<path d="M136.755 523L134.13 528.5L136.13 525H267.13V523H136.755Z" fill="black"/>
<path d="M139.38 517.5L136.755 523M136.755 523L134.13 528.5L136.13 525H267.13V523H136.755Z" stroke="black"/>
<path d="M406.235 523L408.86 528.5L406.86 525L265 524.5V523H406.235Z" fill="black"/>
<path d="M403.61 517.5L406.235 523M406.235 523L408.86 528.5L406.86 525L265 524.5V523H406.235Z" stroke="black"/>
</g>
</g>
<path d="M1.16119 638L3.86119 620H1086.14L1088.84 638H1.16119Z" fill="#FBFBFB" stroke="black" stroke-width="2"/>
<g clip-path="url(#clip6_71_469)">
<path d="M27.7575 732L1.32005 638H1088.68L1062.24 732H27.7575Z" fill="white" stroke="black" stroke-width="2"/>
<path d="M346.267 656H755.733C762.86 656 768.106 662.673 766.422 669.598L757.671 705.598C756.472 710.529 752.056 714 746.982 714H355.018C349.944 714 345.528 710.529 344.329 705.598L335.578 669.598C333.894 662.673 339.14 656 346.267 656Z" fill="#F3E32F" stroke="black" stroke-width="2"/>
<path d="M382.518 677.216C383.498 677.216 384.324 677.345 384.996 677.604C385.675 677.856 386.305 678.22 386.886 678.696L385.616 680.208C385.182 679.844 384.716 679.575 384.219 679.4C383.722 679.225 383.194 679.137 382.634 679.137C381.913 679.137 381.248 679.319 380.639 679.683C380.03 680.047 379.54 680.639 379.169 681.458C378.805 682.277 378.623 683.369 378.623 684.734C378.623 686.071 378.798 687.149 379.148 687.968C379.498 688.787 379.977 689.382 380.586 689.753C381.195 690.124 381.878 690.309 382.634 690.309C383.411 690.309 384.055 690.183 384.566 689.931C385.077 689.672 385.528 689.382 385.92 689.06L387.096 690.561C386.613 691.03 386.001 691.436 385.259 691.779C384.517 692.115 383.614 692.284 382.55 692.284C381.325 692.284 380.222 691.996 379.242 691.422C378.269 690.841 377.499 689.991 376.932 688.871C376.372 687.751 376.092 686.372 376.092 684.734C376.092 683.11 376.383 681.741 376.964 680.628C377.545 679.508 378.322 678.661 379.295 678.087C380.268 677.506 381.342 677.216 382.518 677.216ZM391.813 680.912V688.661C391.813 689.319 391.942 689.788 392.201 690.068C392.467 690.348 392.866 690.488 393.398 690.488C393.902 690.488 394.389 690.337 394.858 690.036C395.327 689.735 395.698 689.368 395.971 688.934V680.912H398.323V692H396.296L396.149 690.582C395.736 691.135 395.215 691.559 394.585 691.853C393.955 692.14 393.311 692.284 392.653 692.284C391.582 692.284 390.78 691.989 390.248 691.401C389.723 690.806 389.461 689.991 389.461 688.955V680.912H391.813ZM402.158 692V690.32H403.785V682.581H402.158V680.912H405.581L406.011 683.484C406.424 682.553 406.935 681.846 407.544 681.363C408.16 680.873 408.951 680.628 409.917 680.628C410.246 680.628 410.54 680.656 410.799 680.712C411.065 680.761 411.328 680.828 411.587 680.912L410.883 682.928C410.659 682.865 410.449 682.819 410.253 682.791C410.057 682.756 409.84 682.739 409.602 682.739C408.797 682.739 408.101 683.04 407.513 683.642C406.932 684.244 406.473 685.098 406.137 686.204V690.32H408.374V692H402.158ZM409.508 684.996V682.266L409.802 680.912H411.587L411.188 684.996H409.508ZM414.749 692V690.32H416.377V682.581H414.749V680.912H418.172L418.603 683.484C419.016 682.553 419.527 681.846 420.136 681.363C420.752 680.873 421.543 680.628 422.509 680.628C422.838 680.628 423.132 680.656 423.391 680.712C423.657 680.761 423.919 680.828 424.178 680.912L423.475 682.928C423.251 682.865 423.041 682.819 422.845 682.791C422.649 682.756 422.432 682.739 422.194 682.739C421.389 682.739 420.692 683.04 420.104 683.642C419.523 684.244 419.065 685.098 418.729 686.204V690.32H420.965V692H414.749ZM422.099 684.996V682.266L422.393 680.912H424.178L423.779 684.996H422.099ZM433.295 680.912V690.278H436.308V692H427.625V690.278H430.943V682.634H427.73V680.912H433.295ZM431.657 675.483C432.119 675.483 432.49 675.623 432.77 675.903C433.057 676.183 433.2 676.533 433.2 676.953C433.2 677.373 433.057 677.727 432.77 678.014C432.49 678.301 432.119 678.444 431.657 678.444C431.209 678.444 430.841 678.301 430.554 678.014C430.267 677.727 430.124 677.373 430.124 676.953C430.124 676.533 430.267 676.183 430.554 675.903C430.841 675.623 431.209 675.483 431.657 675.483ZM445.172 690.351C445.69 690.351 446.173 690.264 446.621 690.089C447.069 689.907 447.496 689.672 447.902 689.385L448.994 690.897C448.511 691.31 447.923 691.646 447.23 691.905C446.544 692.158 445.834 692.284 445.099 692.284C443.965 692.284 442.995 692.046 442.19 691.569C441.385 691.086 440.769 690.411 440.342 689.543C439.915 688.675 439.702 687.663 439.702 686.508C439.702 685.381 439.915 684.377 440.342 683.495C440.776 682.606 441.399 681.906 442.211 681.395C443.023 680.877 444 680.618 445.141 680.618C445.897 680.618 446.593 680.73 447.23 680.954C447.867 681.178 448.452 681.51 448.984 681.951L447.902 683.432C447.468 683.131 447.024 682.903 446.569 682.749C446.121 682.588 445.659 682.508 445.183 682.508C444.308 682.508 443.59 682.83 443.03 683.474C442.477 684.118 442.201 685.129 442.201 686.508C442.201 687.432 442.327 688.178 442.579 688.745C442.838 689.305 443.191 689.714 443.639 689.973C444.087 690.225 444.598 690.351 445.172 690.351ZM454.772 680.912V688.661C454.772 689.319 454.901 689.788 455.16 690.068C455.426 690.348 455.825 690.488 456.357 690.488C456.861 690.488 457.348 690.337 457.817 690.036C458.286 689.735 458.657 689.368 458.93 688.934V680.912H461.282V692H459.255L459.108 690.582C458.695 691.135 458.174 691.559 457.544 691.853C456.914 692.14 456.27 692.284 455.612 692.284C454.541 692.284 453.739 691.989 453.207 691.401C452.682 690.806 452.42 689.991 452.42 688.955V680.912H454.772ZM469.884 676.46V688.976C469.884 689.487 470.038 689.851 470.346 690.068C470.661 690.278 471.067 690.383 471.564 690.383C471.886 690.383 472.19 690.348 472.477 690.278C472.764 690.208 473.044 690.12 473.317 690.015L473.916 691.654C473.587 691.821 473.181 691.968 472.698 692.095C472.222 692.221 471.676 692.284 471.06 692.284C469.947 692.284 469.079 691.972 468.456 691.349C467.84 690.719 467.532 689.858 467.532 688.766V678.192H464.182V676.46H469.884ZM479.955 680.912V688.661C479.955 689.319 480.085 689.788 480.344 690.068C480.61 690.348 481.009 690.488 481.541 690.488C482.045 690.488 482.531 690.337 483 690.036C483.469 689.735 483.84 689.368 484.113 688.934V680.912H486.465V692H484.439L484.292 690.582C483.879 691.135 483.357 691.559 482.727 691.853C482.097 692.14 481.453 692.284 480.795 692.284C479.724 692.284 478.923 691.989 478.391 691.401C477.866 690.806 477.603 689.991 477.603 688.955V680.912H479.955ZM497.839 680.618C498.259 680.618 498.637 680.709 498.973 680.891C499.309 681.073 499.572 681.391 499.761 681.846C499.957 682.301 500.055 682.938 500.055 683.757V692H497.965V684.083C497.965 683.502 497.923 683.085 497.839 682.833C497.762 682.581 497.556 682.455 497.22 682.455C496.954 682.455 496.684 682.539 496.411 682.707C496.138 682.868 495.862 683.148 495.582 683.547V692H493.681V684.083C493.681 683.502 493.639 683.085 493.555 682.833C493.478 682.581 493.272 682.455 492.936 682.455C492.663 682.455 492.39 682.539 492.117 682.707C491.851 682.868 491.578 683.148 491.298 683.547V692H489.198V680.912H490.972L491.13 682.109C491.445 681.668 491.788 681.311 492.159 681.038C492.53 680.758 492.978 680.618 493.503 680.618C493.923 680.618 494.304 680.723 494.647 680.933C494.99 681.143 495.242 681.51 495.403 682.035C495.711 681.615 496.061 681.276 496.453 681.017C496.845 680.751 497.307 680.618 497.839 680.618ZM519.862 689.69L523.327 677.51H525.795L521.206 692H518.413L513.825 677.51H516.429L519.862 689.69ZM534.029 680.912V690.278H537.043V692H528.359V690.278H531.677V682.634H528.464V680.912H534.029ZM532.391 675.483C532.853 675.483 533.224 675.623 533.504 675.903C533.791 676.183 533.935 676.533 533.935 676.953C533.935 677.373 533.791 677.727 533.504 678.014C533.224 678.301 532.853 678.444 532.391 678.444C531.943 678.444 531.576 678.301 531.289 678.014C531.002 677.727 530.858 677.373 530.858 676.953C530.858 676.533 531.002 676.183 531.289 675.903C531.576 675.623 531.943 675.483 532.391 675.483ZM549.823 691.412C549.417 691.671 548.931 691.881 548.364 692.042C547.797 692.203 547.205 692.284 546.589 692.284C545.301 692.284 544.321 691.951 543.649 691.286C542.984 690.614 542.652 689.732 542.652 688.64V682.623H540.184V680.912H542.652V678.434L545.004 678.15V680.912H548.742L548.479 682.623H545.004V688.619C545.004 689.214 545.151 689.658 545.445 689.952C545.746 690.239 546.236 690.383 546.915 690.383C547.321 690.383 547.695 690.334 548.038 690.236C548.381 690.138 548.693 690.012 548.973 689.858L549.823 691.412ZM561.628 689.28C561.628 689.714 561.694 690.033 561.827 690.236C561.96 690.432 562.174 690.579 562.468 690.677L561.943 692.273C561.397 692.21 560.928 692.06 560.536 691.821C560.144 691.583 559.846 691.223 559.643 690.74C559.237 691.251 558.723 691.636 558.1 691.895C557.477 692.154 556.812 692.284 556.105 692.284C554.985 692.284 554.096 691.969 553.438 691.338C552.787 690.701 552.461 689.868 552.461 688.839C552.461 687.67 552.916 686.771 553.826 686.141C554.736 685.511 556.038 685.196 557.732 685.196H559.318V684.471C559.318 683.757 559.101 683.243 558.667 682.928C558.24 682.613 557.634 682.455 556.85 682.455C556.486 682.455 556.045 682.504 555.527 682.602C555.009 682.693 554.467 682.837 553.9 683.033L553.322 681.374C554.015 681.115 554.694 680.926 555.359 680.807C556.024 680.681 556.64 680.618 557.207 680.618C558.691 680.618 559.797 680.947 560.525 681.605C561.26 682.263 561.628 683.173 561.628 684.335V689.28ZM556.819 690.551C557.295 690.551 557.76 690.425 558.215 690.173C558.67 689.921 559.038 689.567 559.318 689.112V686.666H558.016C556.91 686.666 556.119 686.851 555.643 687.222C555.167 687.586 554.929 688.09 554.929 688.734C554.929 689.322 555.086 689.774 555.401 690.089C555.723 690.397 556.196 690.551 556.819 690.551ZM567.699 687.212C567.748 687.968 567.909 688.587 568.182 689.07C568.455 689.546 568.812 689.896 569.253 690.12C569.701 690.344 570.191 690.457 570.723 690.457C571.269 690.457 571.773 690.372 572.235 690.204C572.697 690.036 573.162 689.798 573.631 689.49L574.65 690.897C574.132 691.317 573.526 691.653 572.833 691.905C572.14 692.158 571.398 692.284 570.607 692.284C569.459 692.284 568.486 692.038 567.688 691.548C566.897 691.058 566.295 690.376 565.882 689.501C565.469 688.626 565.263 687.614 565.263 686.466C565.263 685.353 565.466 684.359 565.872 683.484C566.278 682.602 566.859 681.906 567.615 681.395C568.371 680.877 569.274 680.618 570.324 680.618C571.311 680.618 572.158 680.842 572.865 681.29C573.579 681.738 574.128 682.375 574.513 683.201C574.905 684.02 575.101 685.007 575.101 686.162C575.101 686.351 575.094 686.54 575.08 686.729C575.073 686.911 575.063 687.072 575.049 687.212H567.699ZM570.345 682.361C569.61 682.361 569.001 682.623 568.518 683.148C568.042 683.673 567.765 684.492 567.688 685.605H572.823C572.802 684.562 572.578 683.761 572.151 683.201C571.731 682.641 571.129 682.361 570.345 682.361ZM594.92 677.237C595.634 677.237 596.288 677.349 596.883 677.573C597.478 677.79 598.066 678.21 598.647 678.833L597.314 680.019C596.971 679.641 596.628 679.365 596.285 679.19C595.949 679.008 595.539 678.917 595.056 678.917C594.405 678.917 593.915 679.099 593.586 679.463C593.257 679.82 593.093 680.289 593.093 680.87C593.093 681.269 593.194 681.64 593.397 681.983C593.6 682.319 593.877 682.588 594.227 682.791C594.584 682.987 594.986 683.085 595.434 683.085H601.136V684.755H599.445V690.383C599.207 690.663 598.889 690.95 598.49 691.244C598.098 691.538 597.604 691.786 597.009 691.989C596.421 692.186 595.718 692.284 594.899 692.284C593.807 692.284 592.9 692.077 592.179 691.664C591.465 691.251 590.933 690.712 590.583 690.047C590.233 689.375 590.058 688.654 590.058 687.884C590.058 686.771 590.342 685.878 590.909 685.206C591.483 684.534 592.284 684.086 593.313 683.862V683.789C592.711 683.642 592.225 683.421 591.854 683.127C591.49 682.826 591.224 682.469 591.056 682.056C590.888 681.643 590.804 681.195 590.804 680.712C590.804 680.075 590.975 679.494 591.318 678.969C591.661 678.444 592.141 678.024 592.757 677.709C593.373 677.394 594.094 677.237 594.92 677.237ZM597.293 684.755H595.203C594.538 684.755 593.996 684.905 593.576 685.206C593.163 685.507 592.855 685.889 592.652 686.351C592.456 686.813 592.358 687.282 592.358 687.758C592.358 688.248 592.452 688.699 592.641 689.112C592.83 689.525 593.117 689.858 593.502 690.11C593.894 690.362 594.395 690.488 595.004 690.488C595.501 690.488 595.945 690.407 596.337 690.246C596.729 690.085 597.048 689.861 597.293 689.574V684.755ZM623.537 682.077C623.537 681.412 623.407 680.88 623.148 680.481C622.896 680.082 622.536 679.792 622.067 679.61C621.605 679.428 621.059 679.337 620.429 679.337H618.686V684.975H620.46C621.069 684.975 621.605 684.884 622.067 684.702C622.529 684.52 622.889 684.219 623.148 683.799C623.407 683.379 623.537 682.805 623.537 682.077ZM626.099 682.056C626.099 683.183 625.857 684.097 625.374 684.797C624.898 685.497 624.233 686.011 623.379 686.34C622.525 686.669 621.545 686.834 620.439 686.834H618.686V692H616.25V677.51H620.271C622.091 677.51 623.516 677.884 624.545 678.633C625.581 679.375 626.099 680.516 626.099 682.056ZM633.146 680.618C634.231 680.618 635.145 680.859 635.887 681.342C636.629 681.825 637.189 682.501 637.567 683.369C637.952 684.237 638.144 685.259 638.144 686.435C638.144 687.604 637.948 688.629 637.556 689.511C637.171 690.386 636.604 691.069 635.855 691.559C635.113 692.042 634.207 692.284 633.136 692.284C632.065 692.284 631.155 692.049 630.406 691.58C629.664 691.104 629.097 690.428 628.705 689.553C628.32 688.678 628.127 687.646 628.127 686.456C628.127 685.301 628.32 684.286 628.705 683.411C629.097 682.536 629.667 681.853 630.416 681.363C631.165 680.866 632.075 680.618 633.146 680.618ZM633.146 682.445C632.299 682.445 631.662 682.77 631.235 683.421C630.808 684.065 630.595 685.077 630.595 686.456C630.595 687.828 630.805 688.839 631.225 689.49C631.652 690.141 632.289 690.467 633.136 690.467C633.983 690.467 634.616 690.141 635.036 689.49C635.463 688.839 635.677 687.821 635.677 686.435C635.677 685.07 635.467 684.065 635.047 683.421C634.627 682.77 633.993 682.445 633.146 682.445ZM641.402 692V690.32H643.029V682.581H641.402V680.912H644.825L645.255 683.484C645.668 682.553 646.179 681.846 646.788 681.363C647.404 680.873 648.195 680.628 649.161 680.628C649.49 680.628 649.784 680.656 650.043 680.712C650.309 680.761 650.572 680.828 650.831 680.912L650.127 682.928C649.903 682.865 649.693 682.819 649.497 682.791C649.301 682.756 649.084 682.739 648.846 682.739C648.041 682.739 647.345 683.04 646.757 683.642C646.176 684.244 645.717 685.098 645.381 686.204V690.32H647.618V692H641.402ZM648.752 684.996V682.266L649.046 680.912H650.831L650.432 684.996H648.752ZM663.15 691.412C662.744 691.671 662.257 691.881 661.69 692.042C661.123 692.203 660.532 692.284 659.916 692.284C658.628 692.284 657.648 691.951 656.976 691.286C656.311 690.614 655.978 689.732 655.978 688.64V682.623H653.511V680.912H655.978V678.434L658.33 678.15V680.912H662.068L661.806 682.623H658.33V688.619C658.33 689.214 658.477 689.658 658.771 689.952C659.072 690.239 659.562 690.383 660.241 690.383C660.647 690.383 661.022 690.334 661.365 690.236C661.708 690.138 662.019 690.012 662.299 689.858L663.15 691.412ZM673.221 676.197C673.9 676.197 674.506 676.257 675.038 676.376C675.577 676.488 676.074 676.642 676.529 676.838L675.836 678.465C675.465 678.311 675.076 678.199 674.67 678.129C674.271 678.059 673.865 678.024 673.452 678.024C672.724 678.024 672.185 678.164 671.835 678.444C671.485 678.717 671.31 679.151 671.31 679.746V681.71H675.017L674.765 683.442H671.31V692H668.969V683.442H666.449V681.71H668.969V679.725C668.969 679.025 669.144 678.413 669.494 677.888C669.851 677.356 670.348 676.943 670.985 676.649C671.622 676.348 672.367 676.197 673.221 676.197ZM683.514 680.618C684.599 680.618 685.512 680.859 686.254 681.342C686.996 681.825 687.556 682.501 687.934 683.369C688.319 684.237 688.512 685.259 688.512 686.435C688.512 687.604 688.316 688.629 687.924 689.511C687.539 690.386 686.972 691.069 686.223 691.559C685.481 692.042 684.574 692.284 683.503 692.284C682.432 692.284 681.522 692.049 680.773 691.58C680.031 691.104 679.464 690.428 679.072 689.553C678.687 688.678 678.495 687.646 678.495 686.456C678.495 685.301 678.687 684.286 679.072 683.411C679.464 682.536 680.035 681.853 680.784 681.363C681.533 680.866 682.443 680.618 683.514 680.618ZM683.514 682.445C682.667 682.445 682.03 682.77 681.603 683.421C681.176 684.065 680.962 685.077 680.962 686.456C680.962 687.828 681.172 688.839 681.592 689.49C682.019 690.141 682.656 690.467 683.503 690.467C684.35 690.467 684.984 690.141 685.404 689.49C685.831 688.839 686.044 687.821 686.044 686.435C686.044 685.07 685.834 684.065 685.414 683.421C684.994 682.77 684.361 682.445 683.514 682.445ZM696.536 676.46V688.976C696.536 689.487 696.69 689.851 696.998 690.068C697.313 690.278 697.719 690.383 698.216 690.383C698.538 690.383 698.842 690.348 699.129 690.278C699.416 690.208 699.696 690.12 699.969 690.015L700.568 691.654C700.239 691.821 699.833 691.968 699.35 692.095C698.874 692.221 698.328 692.284 697.712 692.284C696.599 692.284 695.731 691.972 695.108 691.349C694.492 690.719 694.184 689.858 694.184 688.766V678.192H690.834V676.46H696.536ZM710.314 680.912V690.278H713.328V692H704.644V690.278H707.962V682.634H704.749V680.912H710.314ZM708.676 675.483C709.138 675.483 709.509 675.623 709.789 675.903C710.076 676.183 710.22 676.533 710.22 676.953C710.22 677.373 710.076 677.727 709.789 678.014C709.509 678.301 709.138 678.444 708.676 678.444C708.228 678.444 707.861 678.301 707.574 678.014C707.287 677.727 707.143 677.373 707.143 676.953C707.143 676.533 707.287 676.183 707.574 675.903C707.861 675.623 708.228 675.483 708.676 675.483ZM721.289 680.618C722.374 680.618 723.288 680.859 724.03 681.342C724.772 681.825 725.332 682.501 725.71 683.369C726.095 684.237 726.287 685.259 726.287 686.435C726.287 687.604 726.091 688.629 725.699 689.511C725.314 690.386 724.747 691.069 723.998 691.559C723.256 692.042 722.35 692.284 721.279 692.284C720.208 692.284 719.298 692.049 718.549 691.58C717.807 691.104 717.24 690.428 716.848 689.553C716.463 688.678 716.27 687.646 716.27 686.456C716.27 685.301 716.463 684.286 716.848 683.411C717.24 682.536 717.81 681.853 718.559 681.363C719.308 680.866 720.218 680.618 721.289 680.618ZM721.289 682.445C720.442 682.445 719.805 682.77 719.378 683.421C718.951 684.065 718.738 685.077 718.738 686.456C718.738 687.828 718.948 688.839 719.368 689.49C719.795 690.141 720.432 690.467 721.279 690.467C722.126 690.467 722.759 690.141 723.179 689.49C723.606 688.839 723.82 687.821 723.82 686.435C723.82 685.07 723.61 684.065 723.19 683.421C722.77 682.77 722.136 682.445 721.289 682.445Z" fill="black"/>
</g>
<defs>
<clipPath id="clip0_71_469">
<rect width="856" height="82" fill="white" transform="translate(117 47)"/>
</clipPath>
<clipPath id="clip1_71_469">
<rect width="267" height="46" fill="white" transform="translate(545 47)"/>
</clipPath>
<clipPath id="clip2_71_469">
<rect width="890" height="82" fill="white" transform="translate(100 227)"/>
</clipPath>
<clipPath id="clip3_71_469">
<rect width="267" height="46" fill="white" transform="translate(278 227)"/>
</clipPath>
<clipPath id="clip4_71_469">
<rect width="928" height="154" fill="white" transform="translate(81 479)"/>
</clipPath>
<clipPath id="clip5_71_469">
<rect width="277" height="46" fill="white" transform="translate(133 479)"/>
</clipPath>
<clipPath id="clip6_71_469">
<rect width="1090" height="96" fill="white" transform="translate(0 637)"/>
</clipPath>
</defs>
</svg>
