<svg width="1090" height="114" viewBox="0 0 1090 114" fill="none" xmlns="http://www.w3.org/2000/svg">
<path d="M1.16119 19L3.86119 1H1086.14L1088.84 19H1.16119Z" fill="#FBFBFB" stroke="black" stroke-width="2"/>
<g clip-path="url(#clip0_13_3969)">
<path d="M27.7575 113L1.32005 19H1088.68L1062.24 113H27.7575Z" fill="white" stroke="black" stroke-width="2"/>
<path d="M335.578 50.5984C333.894 43.6733 339.14 37 346.267 37H755.733C762.86 37 768.106 43.6733 766.422 50.5984L757.671 86.5984C756.472 91.529 752.056 95 746.982 95H355.018C349.944 95 345.528 91.529 344.329 86.5984L335.578 50.5984Z" fill="#F3E32F" stroke="black" stroke-width="2"/>
<path d="M382.518 58.216C383.498 58.216 384.324 58.3455 384.996 58.6045C385.675 58.8565 386.305 59.2205 386.886 59.6965L385.616 61.2085C385.182 60.8445 384.716 60.575 384.219 60.4C383.722 60.225 383.194 60.1375 382.634 60.1375C381.913 60.1375 381.248 60.3195 380.639 60.6835C380.03 61.0475 379.54 61.639 379.169 62.458C378.805 63.277 378.623 64.369 378.623 65.734C378.623 67.071 378.798 68.149 379.148 68.968C379.498 69.787 379.977 70.382 380.586 70.753C381.195 71.124 381.878 71.3095 382.634 71.3095C383.411 71.3095 384.055 71.1835 384.566 70.9315C385.077 70.6725 385.528 70.382 385.92 70.06L387.096 71.5615C386.613 72.0305 386.001 72.4365 385.259 72.7795C384.517 73.1155 383.614 73.2835 382.55 73.2835C381.325 73.2835 380.222 72.9965 379.242 72.4225C378.269 71.8415 377.499 70.991 376.932 69.871C376.372 68.751 376.092 67.372 376.092 65.734C376.092 64.11 376.383 62.7415 376.964 61.6285C377.545 60.5085 378.322 59.6615 379.295 59.0875C380.268 58.5065 381.342 58.216 382.518 58.216ZM391.813 61.912V69.661C391.813 70.319 391.942 70.788 392.201 71.068C392.467 71.348 392.866 71.488 393.398 71.488C393.902 71.488 394.389 71.3375 394.858 71.0365C395.327 70.7355 395.698 70.368 395.971 69.934V61.912H398.323V73H396.296L396.149 71.5825C395.736 72.1355 395.215 72.559 394.585 72.853C393.955 73.14 393.311 73.2835 392.653 73.2835C391.582 73.2835 390.78 72.9895 390.248 72.4015C389.723 71.8065 389.461 70.991 389.461 69.955V61.912H391.813ZM402.158 73V71.32H403.785V63.5815H402.158V61.912H405.581L406.011 64.4845C406.424 63.5535 406.935 62.8465 407.544 62.3635C408.16 61.8735 408.951 61.6285 409.917 61.6285C410.246 61.6285 410.54 61.6565 410.799 61.7125C411.065 61.7615 411.328 61.828 411.587 61.912L410.883 63.928C410.659 63.865 410.449 63.8195 410.253 63.7915C410.057 63.7565 409.84 63.739 409.602 63.739C408.797 63.739 408.101 64.04 407.513 64.642C406.932 65.244 406.473 66.098 406.137 67.204V71.32H408.374V73H402.158ZM409.508 65.9965V63.2665L409.802 61.912H411.587L411.188 65.9965H409.508ZM414.749 73V71.32H416.377V63.5815H414.749V61.912H418.172L418.603 64.4845C419.016 63.5535 419.527 62.8465 420.136 62.3635C420.752 61.8735 421.543 61.6285 422.509 61.6285C422.838 61.6285 423.132 61.6565 423.391 61.7125C423.657 61.7615 423.919 61.828 424.178 61.912L423.475 63.928C423.251 63.865 423.041 63.8195 422.845 63.7915C422.649 63.7565 422.432 63.739 422.194 63.739C421.389 63.739 420.692 64.04 420.104 64.642C419.523 65.244 419.065 66.098 418.729 67.204V71.32H420.965V73H414.749ZM422.099 65.9965V63.2665L422.393 61.912H424.178L423.779 65.9965H422.099ZM433.295 61.912V71.278H436.308V73H427.625V71.278H430.943V63.634H427.73V61.912H433.295ZM431.657 56.4835C432.119 56.4835 432.49 56.6235 432.77 56.9035C433.057 57.1835 433.2 57.5335 433.2 57.9535C433.2 58.3735 433.057 58.727 432.77 59.014C432.49 59.301 432.119 59.4445 431.657 59.4445C431.209 59.4445 430.841 59.301 430.554 59.014C430.267 58.727 430.124 58.3735 430.124 57.9535C430.124 57.5335 430.267 57.1835 430.554 56.9035C430.841 56.6235 431.209 56.4835 431.657 56.4835ZM445.172 71.3515C445.69 71.3515 446.173 71.264 446.621 71.089C447.069 70.907 447.496 70.6725 447.902 70.3855L448.994 71.8975C448.511 72.3105 447.923 72.6465 447.23 72.9055C446.544 73.1575 445.834 73.2835 445.099 73.2835C443.965 73.2835 442.995 73.0455 442.19 72.5695C441.385 72.0865 440.769 71.411 440.342 70.543C439.915 69.675 439.702 68.6635 439.702 67.5085C439.702 66.3815 439.915 65.377 440.342 64.495C440.776 63.606 441.399 62.906 442.211 62.395C443.023 61.877 444 61.618 445.141 61.618C445.897 61.618 446.593 61.73 447.23 61.954C447.867 62.178 448.452 62.5105 448.984 62.9515L447.902 64.432C447.468 64.131 447.024 63.9035 446.569 63.7495C446.121 63.5885 445.659 63.508 445.183 63.508C444.308 63.508 443.59 63.83 443.03 64.474C442.477 65.118 442.201 66.1295 442.201 67.5085C442.201 68.4325 442.327 69.178 442.579 69.745C442.838 70.305 443.191 70.7145 443.639 70.9735C444.087 71.2255 444.598 71.3515 445.172 71.3515ZM454.772 61.912V69.661C454.772 70.319 454.901 70.788 455.16 71.068C455.426 71.348 455.825 71.488 456.357 71.488C456.861 71.488 457.348 71.3375 457.817 71.0365C458.286 70.7355 458.657 70.368 458.93 69.934V61.912H461.282V73H459.255L459.108 71.5825C458.695 72.1355 458.174 72.559 457.544 72.853C456.914 73.14 456.27 73.2835 455.612 73.2835C454.541 73.2835 453.739 72.9895 453.207 72.4015C452.682 71.8065 452.42 70.991 452.42 69.955V61.912H454.772ZM469.884 57.46V69.976C469.884 70.487 470.038 70.851 470.346 71.068C470.661 71.278 471.067 71.383 471.564 71.383C471.886 71.383 472.19 71.348 472.477 71.278C472.764 71.208 473.044 71.1205 473.317 71.0155L473.916 72.6535C473.587 72.8215 473.181 72.9685 472.698 73.0945C472.222 73.2205 471.676 73.2835 471.06 73.2835C469.947 73.2835 469.079 72.972 468.456 72.349C467.84 71.719 467.532 70.858 467.532 69.766V59.1925H464.182V57.46H469.884ZM479.955 61.912V69.661C479.955 70.319 480.085 70.788 480.344 71.068C480.61 71.348 481.009 71.488 481.541 71.488C482.045 71.488 482.531 71.3375 483 71.0365C483.469 70.7355 483.84 70.368 484.113 69.934V61.912H486.465V73H484.439L484.292 71.5825C483.879 72.1355 483.357 72.559 482.727 72.853C482.097 73.14 481.453 73.2835 480.795 73.2835C479.724 73.2835 478.923 72.9895 478.391 72.4015C477.866 71.8065 477.603 70.991 477.603 69.955V61.912H479.955ZM497.839 61.618C498.259 61.618 498.637 61.709 498.973 61.891C499.309 62.073 499.572 62.3915 499.761 62.8465C499.957 63.3015 500.055 63.9385 500.055 64.7575V73H497.965V65.083C497.965 64.502 497.923 64.0855 497.839 63.8335C497.762 63.5815 497.556 63.4555 497.22 63.4555C496.954 63.4555 496.684 63.5395 496.411 63.7075C496.138 63.8685 495.862 64.1485 495.582 64.5475V73H493.681V65.083C493.681 64.502 493.639 64.0855 493.555 63.8335C493.478 63.5815 493.272 63.4555 492.936 63.4555C492.663 63.4555 492.39 63.5395 492.117 63.7075C491.851 63.8685 491.578 64.1485 491.298 64.5475V73H489.198V61.912H490.972L491.13 63.109C491.445 62.668 491.788 62.311 492.159 62.038C492.53 61.758 492.978 61.618 493.503 61.618C493.923 61.618 494.304 61.723 494.647 61.933C494.99 62.143 495.242 62.5105 495.403 63.0355C495.711 62.6155 496.061 62.276 496.453 62.017C496.845 61.751 497.307 61.618 497.839 61.618ZM519.862 70.69L523.327 58.51H525.795L521.206 73H518.413L513.825 58.51H516.429L519.862 70.69ZM534.029 61.912V71.278H537.043V73H528.359V71.278H531.677V63.634H528.464V61.912H534.029ZM532.391 56.4835C532.853 56.4835 533.224 56.6235 533.504 56.9035C533.791 57.1835 533.935 57.5335 533.935 57.9535C533.935 58.3735 533.791 58.727 533.504 59.014C533.224 59.301 532.853 59.4445 532.391 59.4445C531.943 59.4445 531.576 59.301 531.289 59.014C531.002 58.727 530.858 58.3735 530.858 57.9535C530.858 57.5335 531.002 57.1835 531.289 56.9035C531.576 56.6235 531.943 56.4835 532.391 56.4835ZM549.823 72.412C549.417 72.671 548.931 72.881 548.364 73.042C547.797 73.203 547.205 73.2835 546.589 73.2835C545.301 73.2835 544.321 72.951 543.649 72.286C542.984 71.614 542.652 70.732 542.652 69.64V63.6235H540.184V61.912H542.652V59.434L545.004 59.1505V61.912H548.742L548.479 63.6235H545.004V69.619C545.004 70.214 545.151 70.6585 545.445 70.9525C545.746 71.2395 546.236 71.383 546.915 71.383C547.321 71.383 547.695 71.334 548.038 71.236C548.381 71.138 548.693 71.012 548.973 70.858L549.823 72.412ZM561.628 70.2805C561.628 70.7145 561.694 71.033 561.827 71.236C561.96 71.432 562.174 71.579 562.468 71.677L561.943 73.273C561.397 73.21 560.928 73.0595 560.536 72.8215C560.144 72.5835 559.846 72.223 559.643 71.74C559.237 72.251 558.723 72.636 558.1 72.895C557.477 73.154 556.812 73.2835 556.105 73.2835C554.985 73.2835 554.096 72.9685 553.438 72.3385C552.787 71.7015 552.461 70.8685 552.461 69.8395C552.461 68.6705 552.916 67.771 553.826 67.141C554.736 66.511 556.038 66.196 557.732 66.196H559.318V65.4715C559.318 64.7575 559.101 64.243 558.667 63.928C558.24 63.613 557.634 63.4555 556.85 63.4555C556.486 63.4555 556.045 63.5045 555.527 63.6025C555.009 63.6935 554.467 63.837 553.9 64.033L553.322 62.374C554.015 62.115 554.694 61.926 555.359 61.807C556.024 61.681 556.64 61.618 557.207 61.618C558.691 61.618 559.797 61.947 560.525 62.605C561.26 63.263 561.628 64.173 561.628 65.335V70.2805ZM556.819 71.551C557.295 71.551 557.76 71.425 558.215 71.173C558.67 70.921 559.038 70.5675 559.318 70.1125V67.666H558.016C556.91 67.666 556.119 67.8515 555.643 68.2225C555.167 68.5865 554.929 69.0905 554.929 69.7345C554.929 70.3225 555.086 70.774 555.401 71.089C555.723 71.397 556.196 71.551 556.819 71.551ZM567.699 68.212C567.748 68.968 567.909 69.5875 568.182 70.0705C568.455 70.5465 568.812 70.8965 569.253 71.1205C569.701 71.3445 570.191 71.4565 570.723 71.4565C571.269 71.4565 571.773 71.3725 572.235 71.2045C572.697 71.0365 573.162 70.7985 573.631 70.4905L574.65 71.8975C574.132 72.3175 573.526 72.6535 572.833 72.9055C572.14 73.1575 571.398 73.2835 570.607 73.2835C569.459 73.2835 568.486 73.0385 567.688 72.5485C566.897 72.0585 566.295 71.376 565.882 70.501C565.469 69.626 565.263 68.6145 565.263 67.4665C565.263 66.3535 565.466 65.3595 565.872 64.4845C566.278 63.6025 566.859 62.906 567.615 62.395C568.371 61.877 569.274 61.618 570.324 61.618C571.311 61.618 572.158 61.842 572.865 62.29C573.579 62.738 574.128 63.375 574.513 64.201C574.905 65.02 575.101 66.007 575.101 67.162C575.101 67.351 575.094 67.54 575.08 67.729C575.073 67.911 575.063 68.072 575.049 68.212H567.699ZM570.345 63.361C569.61 63.361 569.001 63.6235 568.518 64.1485C568.042 64.6735 567.765 65.4925 567.688 66.6055H572.823C572.802 65.5625 572.578 64.761 572.151 64.201C571.731 63.641 571.129 63.361 570.345 63.361ZM594.92 58.237C595.634 58.237 596.288 58.349 596.883 58.573C597.478 58.79 598.066 59.21 598.647 59.833L597.314 61.0195C596.971 60.6415 596.628 60.365 596.285 60.19C595.949 60.008 595.539 59.917 595.056 59.917C594.405 59.917 593.915 60.099 593.586 60.463C593.257 60.82 593.093 61.289 593.093 61.87C593.093 62.269 593.194 62.64 593.397 62.983C593.6 63.319 593.877 63.5885 594.227 63.7915C594.584 63.9875 594.986 64.0855 595.434 64.0855H601.136V65.755H599.445V71.383C599.207 71.663 598.889 71.95 598.49 72.244C598.098 72.538 597.604 72.7865 597.009 72.9895C596.421 73.1855 595.718 73.2835 594.899 73.2835C593.807 73.2835 592.9 73.077 592.179 72.664C591.465 72.251 590.933 71.712 590.583 71.047C590.233 70.375 590.058 69.654 590.058 68.884C590.058 67.771 590.342 66.8785 590.909 66.2065C591.483 65.5345 592.284 65.0865 593.313 64.8625V64.789C592.711 64.642 592.225 64.4215 591.854 64.1275C591.49 63.8265 591.224 63.4695 591.056 63.0565C590.888 62.6435 590.804 62.1955 590.804 61.7125C590.804 61.0755 590.975 60.4945 591.318 59.9695C591.661 59.4445 592.141 59.0245 592.757 58.7095C593.373 58.3945 594.094 58.237 594.92 58.237ZM597.293 65.755H595.203C594.538 65.755 593.996 65.9055 593.576 66.2065C593.163 66.5075 592.855 66.889 592.652 67.351C592.456 67.813 592.358 68.282 592.358 68.758C592.358 69.248 592.452 69.6995 592.641 70.1125C592.83 70.5255 593.117 70.858 593.502 71.11C593.894 71.362 594.395 71.488 595.004 71.488C595.501 71.488 595.945 71.4075 596.337 71.2465C596.729 71.0855 597.048 70.8615 597.293 70.5745V65.755ZM623.537 63.0775C623.537 62.4125 623.407 61.8805 623.148 61.4815C622.896 61.0825 622.536 60.792 622.067 60.61C621.605 60.428 621.059 60.337 620.429 60.337H618.686V65.9755H620.46C621.069 65.9755 621.605 65.8845 622.067 65.7025C622.529 65.5205 622.889 65.2195 623.148 64.7995C623.407 64.3795 623.537 63.8055 623.537 63.0775ZM626.099 63.0565C626.099 64.1835 625.857 65.097 625.374 65.797C624.898 66.497 624.233 67.0115 623.379 67.3405C622.525 67.6695 621.545 67.834 620.439 67.834H618.686V73H616.25V58.51H620.271C622.091 58.51 623.516 58.8845 624.545 59.6335C625.581 60.3755 626.099 61.5165 626.099 63.0565ZM633.146 61.618C634.231 61.618 635.145 61.8595 635.887 62.3425C636.629 62.8255 637.189 63.501 637.567 64.369C637.952 65.237 638.144 66.259 638.144 67.435C638.144 68.604 637.948 69.6295 637.556 70.5115C637.171 71.3865 636.604 72.069 635.855 72.559C635.113 73.042 634.207 73.2835 633.136 73.2835C632.065 73.2835 631.155 73.049 630.406 72.58C629.664 72.104 629.097 71.4285 628.705 70.5535C628.32 69.6785 628.127 68.646 628.127 67.456C628.127 66.301 628.32 65.286 628.705 64.411C629.097 63.536 629.667 62.8535 630.416 62.3635C631.165 61.8665 632.075 61.618 633.146 61.618ZM633.146 63.445C632.299 63.445 631.662 63.7705 631.235 64.4215C630.808 65.0655 630.595 66.077 630.595 67.456C630.595 68.828 630.805 69.8395 631.225 70.4905C631.652 71.1415 632.289 71.467 633.136 71.467C633.983 71.467 634.616 71.1415 635.036 70.4905C635.463 69.8395 635.677 68.821 635.677 67.435C635.677 66.07 635.467 65.0655 635.047 64.4215C634.627 63.7705 633.993 63.445 633.146 63.445ZM641.402 73V71.32H643.029V63.5815H641.402V61.912H644.825L645.255 64.4845C645.668 63.5535 646.179 62.8465 646.788 62.3635C647.404 61.8735 648.195 61.6285 649.161 61.6285C649.49 61.6285 649.784 61.6565 650.043 61.7125C650.309 61.7615 650.572 61.828 650.831 61.912L650.127 63.928C649.903 63.865 649.693 63.8195 649.497 63.7915C649.301 63.7565 649.084 63.739 648.846 63.739C648.041 63.739 647.345 64.04 646.757 64.642C646.176 65.244 645.717 66.098 645.381 67.204V71.32H647.618V73H641.402ZM648.752 65.9965V63.2665L649.046 61.912H650.831L650.432 65.9965H648.752ZM663.15 72.412C662.744 72.671 662.257 72.881 661.69 73.042C661.123 73.203 660.532 73.2835 659.916 73.2835C658.628 73.2835 657.648 72.951 656.976 72.286C656.311 71.614 655.978 70.732 655.978 69.64V63.6235H653.511V61.912H655.978V59.434L658.33 59.1505V61.912H662.068L661.806 63.6235H658.33V69.619C658.33 70.214 658.477 70.6585 658.771 70.9525C659.072 71.2395 659.562 71.383 660.241 71.383C660.647 71.383 661.022 71.334 661.365 71.236C661.708 71.138 662.019 71.012 662.299 70.858L663.15 72.412ZM673.221 57.1975C673.9 57.1975 674.506 57.257 675.038 57.376C675.577 57.488 676.074 57.642 676.529 57.838L675.836 59.4655C675.465 59.3115 675.076 59.1995 674.67 59.1295C674.271 59.0595 673.865 59.0245 673.452 59.0245C672.724 59.0245 672.185 59.1645 671.835 59.4445C671.485 59.7175 671.31 60.1515 671.31 60.7465V62.71H675.017L674.765 64.4425H671.31V73H668.969V64.4425H666.449V62.71H668.969V60.7255C668.969 60.0255 669.144 59.413 669.494 58.888C669.851 58.356 670.348 57.943 670.985 57.649C671.622 57.348 672.367 57.1975 673.221 57.1975ZM683.514 61.618C684.599 61.618 685.512 61.8595 686.254 62.3425C686.996 62.8255 687.556 63.501 687.934 64.369C688.319 65.237 688.512 66.259 688.512 67.435C688.512 68.604 688.316 69.6295 687.924 70.5115C687.539 71.3865 686.972 72.069 686.223 72.559C685.481 73.042 684.574 73.2835 683.503 73.2835C682.432 73.2835 681.522 73.049 680.773 72.58C680.031 72.104 679.464 71.4285 679.072 70.5535C678.687 69.6785 678.495 68.646 678.495 67.456C678.495 66.301 678.687 65.286 679.072 64.411C679.464 63.536 680.035 62.8535 680.784 62.3635C681.533 61.8665 682.443 61.618 683.514 61.618ZM683.514 63.445C682.667 63.445 682.03 63.7705 681.603 64.4215C681.176 65.0655 680.962 66.077 680.962 67.456C680.962 68.828 681.172 69.8395 681.592 70.4905C682.019 71.1415 682.656 71.467 683.503 71.467C684.35 71.467 684.984 71.1415 685.404 70.4905C685.831 69.8395 686.044 68.821 686.044 67.435C686.044 66.07 685.834 65.0655 685.414 64.4215C684.994 63.7705 684.361 63.445 683.514 63.445ZM696.536 57.46V69.976C696.536 70.487 696.69 70.851 696.998 71.068C697.313 71.278 697.719 71.383 698.216 71.383C698.538 71.383 698.842 71.348 699.129 71.278C699.416 71.208 699.696 71.1205 699.969 71.0155L700.568 72.6535C700.239 72.8215 699.833 72.9685 699.35 73.0945C698.874 73.2205 698.328 73.2835 697.712 73.2835C696.599 73.2835 695.731 72.972 695.108 72.349C694.492 71.719 694.184 70.858 694.184 69.766V59.1925H690.834V57.46H696.536ZM710.314 61.912V71.278H713.328V73H704.644V71.278H707.962V63.634H704.749V61.912H710.314ZM708.676 56.4835C709.138 56.4835 709.509 56.6235 709.789 56.9035C710.076 57.1835 710.22 57.5335 710.22 57.9535C710.22 58.3735 710.076 58.727 709.789 59.014C709.509 59.301 709.138 59.4445 708.676 59.4445C708.228 59.4445 707.861 59.301 707.574 59.014C707.287 58.727 707.143 58.3735 707.143 57.9535C707.143 57.5335 707.287 57.1835 707.574 56.9035C707.861 56.6235 708.228 56.4835 708.676 56.4835ZM721.289 61.618C722.374 61.618 723.288 61.8595 724.03 62.3425C724.772 62.8255 725.332 63.501 725.71 64.369C726.095 65.237 726.287 66.259 726.287 67.435C726.287 68.604 726.091 69.6295 725.699 70.5115C725.314 71.3865 724.747 72.069 723.998 72.559C723.256 73.042 722.35 73.2835 721.279 73.2835C720.208 73.2835 719.298 73.049 718.549 72.58C717.807 72.104 717.24 71.4285 716.848 70.5535C716.463 69.6785 716.27 68.646 716.27 67.456C716.27 66.301 716.463 65.286 716.848 64.411C717.24 63.536 717.81 62.8535 718.559 62.3635C719.308 61.8665 720.218 61.618 721.289 61.618ZM721.289 63.445C720.442 63.445 719.805 63.7705 719.378 64.4215C718.951 65.0655 718.738 66.077 718.738 67.456C718.738 68.828 718.948 69.8395 719.368 70.4905C719.795 71.1415 720.432 71.467 721.279 71.467C722.126 71.467 722.759 71.1415 723.179 70.4905C723.606 69.8395 723.82 68.821 723.82 67.435C723.82 66.07 723.61 65.0655 723.19 64.4215C722.77 63.7705 722.136 63.445 721.289 63.445Z" fill="black"/>
</g>
<defs>
<clipPath id="clip0_13_3969">
<rect width="1090" height="96" fill="white" transform="translate(0 18)"/>
</clipPath>
</defs>
</svg>
